<svg xmlns="http://www.w3.org/2000/svg"
          width="68"
          height="77"
          fill="none"
          viewBox="0 0 68 77">
          <g clip-path="url(#clip0_224_36)">
            <path fill="#1D1D1B"
              fill-rule="evenodd"
              d="M1.3 65.664c-.378-1.62-1.701-3.052-.304-4.667 1.486.292 2.64-.229 3.683-1.098.063-.052.119-.116.188-.153 1.145-.605 2.313-1.175 3.436-1.82 1.051-.603 2.058-1.284 3.083-1.936.113-.071.196-.191.313-.252 1.176-.623 2.376-1.21 3.533-1.866 1.148-.651 2.226-1.433 3.394-2.044.959-.502 2.004-.839 3.112-1.29l1.21 2.16c.042.294.058.615.133.923.29 1.208-.183 1.947-1.316 2.516-1.221.614-2.353 1.406-3.523 2.123-.09.056-.16.147-.254.198-1.178.62-2.37 1.216-3.534 1.861-.904.5-1.774 1.061-2.764 1.483l-.357.791c.136.047.213.104.28.092 1.176-.188 2.344-.469 3.526-.565 3.936-.319 7.412-2.122 11.038-3.412 1.265-.45 2.357-1.383 3.528-2.095.092-.055.192-.1.282-.157 1.153-.727 2.307-1.452 3.455-2.186.783-.5 1.59-.972 2.328-1.535.954-.73 1.843-1.544 2.774-2.304.266-.219.579-.38.822-.612.633-.556 1.278-1.099 1.893-1.673a47.3 47.3 0 002.012-1.979c1.141-1.2 2.282-2.404 3.372-3.648.84-.97 1.644-1.97 2.41-3 1.2-1.599 2.441-3.177 3.52-4.857a88.996 88.996 0 003.758-6.416 83.673 83.673 0 003.096-6.555 52.02 52.02 0 001.968-5.564c.636-2.162 1.149-4.361 1.644-6.56.346-1.533.605-3.09.844-4.642.162-1.065.207-2.147.335-3.217.04-.334.179-.656.273-.988l1.163-.4c1.334.78 1.65 2.036 1.947 3.267.129.541.083 1.152-.006 1.713-.369 2.317-.745 4.635-1.196 6.94a51.958 51.958 0 01-1.122 4.632c-.713 2.43-1.335 4.906-2.314 7.232-1.6 3.802-3.323 7.567-5.252 11.214-1.252 2.368-2.943 4.511-4.472 6.732-.778 1.129-1.583 2.248-2.463 3.298-1.044 1.247-2.177 2.42-3.28 3.617-.892.97-1.772 1.95-2.702 2.884-.703.706-1.473 1.345-2.216 2.011-.408.365-.822.722-1.212 1.065-.69.58-1.352 1.142-2.02 1.698-.623.518-1.243 1.04-1.879 1.54-.496.39-.997.78-1.527 1.12-.865.555-1.765 1.056-2.631 1.605-1.024.65-2.028 1.33-3.04 1.995-.067.044-.134.09-.206.127-3.455 1.757-7.043 3.194-10.783 4.197-1.285.345-2.666.326-4.002.48-.1.01-.195.063-.442.148 1.04.716 1.99 1.336 2.903 2.011.881.653 1.829 1.269 2.541 2.079.475.539.736 1.372.817 2.105.07.624-.255 1.292-.433 2.065l-1.312-.201C13.86 71.348 7.672 68.383 1.3 65.664"
              clip-rule="evenodd" />
          </g>
          <defs>
            <clipPath id="clip0_224_36">
              <path fill="#fff"
                d="M0 0h68v77H0z" />
            </clipPath>
          </defs>
        </svg>
