   <svg width="290"
                  height="290"
                  viewBox="0 0 290 290"
                  fill="none"
                  xmlns="http://www.w3.org/2000/svg">
                  <path
                    d="M282.32 145C282.04 202.01 245.95 254.51 192.12 274.04C137.86 293.72 75.96 276.8 39.11 232.46C2.20996 188.07 -2.35004 123.09 27.55 73.81C57.23 24.89 115.96 -1.01001 172.1 10.34C227.72 21.58 271.55 67.25 280.63 123.24C281.79 130.44 282.28 137.72 282.32 145C282.34 149.82 289.84 149.83 289.82 145C289.53 84.71 251.41 29.83 194.73 8.95998C137.86 -11.98 71.88 6.00998 33.38 52.74C-5.30002 99.7 -10.57 167.84 21.06 219.97C52.43 271.67 114.12 298.73 173.42 287.02C232.09 275.43 279.06 226.56 288.06 167.4C289.19 159.98 289.77 152.51 289.81 145C289.84 140.17 282.34 140.17 282.32 145Z"
                    fill="black" />
                  <path
                    d="M186.85 251.26C186.58 251.09 186.32 250.92 186.06 250.75C185.94 250.67 185.83 250.59 185.71 250.5C185.7 250.49 185.25 250.15 185.52 250.36C185.03 249.97 184.56 249.56 184.11 249.11C183.7 248.71 183.32 248.29 182.96 247.85C182.95 247.84 182.6 247.4 182.81 247.67C182.72 247.56 182.64 247.44 182.55 247.33C182.35 247.05 182.16 246.77 181.97 246.48C181.65 245.97 181.35 245.45 181.08 244.91C180.74 244.23 180.7 244.13 180.45 243.41C180.25 242.83 180.08 242.24 179.94 241.64C179.87 241.32 179.8 241 179.75 240.68C179.73 240.56 179.71 240.44 179.69 240.33C179.74 240.65 179.65 239.97 179.64 239.91C179.52 238.68 179.54 237.44 179.69 236.21C179.65 236.59 179.72 236.04 179.72 236.01C179.74 235.87 179.77 235.73 179.79 235.59C179.85 235.29 179.91 234.99 179.98 234.69C180.12 234.1 180.3 233.52 180.51 232.94C180.56 232.81 180.61 232.68 180.66 232.55C180.69 232.48 180.83 232.14 180.7 232.44C180.81 232.19 180.92 231.94 181.04 231.7C181.31 231.14 181.62 230.59 181.95 230.07C182.11 229.82 182.28 229.57 182.45 229.33C182.51 229.24 182.58 229.16 182.64 229.07C182.95 228.64 182.42 229.32 182.76 228.91C183.14 228.45 183.52 228 183.94 227.58C184.4 227.12 184.88 226.69 185.38 226.28C185.79 225.94 185.11 226.47 185.53 226.16C185.66 226.06 185.79 225.97 185.92 225.87C186.19 225.68 186.46 225.5 186.73 225.33C188.04 224.52 188.84 224.16 190.17 223.74C190.89 223.51 191.5 222.83 191.47 222.03C191.45 221.44 191.45 220.85 191.48 220.26C191.49 220.04 191.51 219.82 191.53 219.61C191.54 219.45 191.56 219.29 191.58 219.12C191.62 218.73 191.53 219.37 191.6 218.95C191.76 217.95 191.98 216.96 192.29 216C192.37 215.75 192.46 215.5 192.55 215.25C192.6 215.13 192.64 215.01 192.69 214.88C192.72 214.8 192.85 214.48 192.72 214.79C192.92 214.31 193.15 213.84 193.39 213.38C193.61 212.97 193.84 212.56 194.09 212.17C194.23 211.95 194.37 211.74 194.52 211.52C194.58 211.44 194.64 211.35 194.7 211.27C194.73 211.23 195.05 210.8 194.93 210.95C194.78 211.15 195.09 210.75 195.08 210.76C195.14 210.68 195.21 210.6 195.28 210.52C195.44 210.32 195.61 210.13 195.79 209.94C196.14 209.56 196.5 209.19 196.87 208.84C197.23 208.51 197.6 208.19 197.98 207.88C198.05 207.83 198.32 207.62 198.05 207.82C198.13 207.76 198.22 207.7 198.3 207.64C198.53 207.47 198.76 207.31 199 207.15C199.84 206.59 200.73 206.1 201.66 205.69C201.65 205.7 202.12 205.49 201.88 205.59C201.64 205.69 202.12 205.5 202.11 205.5C202.33 205.41 202.55 205.33 202.78 205.26C203.3 205.08 203.84 204.92 204.38 204.79C204.95 204.65 205.53 204.54 206.11 204.45C206.18 204.44 206.46 204.41 206.12 204.45C206.28 204.43 206.44 204.41 206.61 204.4C206.91 204.37 207.21 204.35 207.51 204.34C209.04 204.27 210.46 204.38 211.88 204.67C212.76 204.85 213.86 204.42 214.06 203.43C214.42 201.62 214.94 199.84 215.63 198.13C215.67 198.03 215.71 197.93 215.75 197.83C215.72 197.9 215.62 198.12 215.76 197.81C215.85 197.61 215.93 197.42 216.02 197.22C216.21 196.81 216.41 196.4 216.62 196C217.04 195.2 217.5 194.42 217.99 193.66C218.22 193.3 218.46 192.95 218.71 192.61C218.83 192.44 218.96 192.27 219.08 192.1C219.11 192.06 219.31 191.8 219.18 191.96C219.05 192.13 219.31 191.8 219.33 191.76C219.89 191.06 220.48 190.38 221.1 189.73C221.72 189.08 222.37 188.46 223.05 187.87C223.37 187.59 223.7 187.33 224.03 187.06C224.08 187.02 224.29 186.85 224.05 187.04C224.13 186.98 224.22 186.91 224.3 186.85C224.51 186.69 224.73 186.54 224.94 186.38C226.37 185.37 227.9 184.48 229.49 183.75C229.71 183.65 229.93 183.55 230.15 183.45C230.41 183.34 229.91 183.55 230.17 183.44C230.27 183.4 230.37 183.36 230.47 183.32C230.89 183.15 231.32 182.99 231.76 182.84C232.63 182.54 233.52 182.28 234.41 182.06C235.32 181.84 236.24 181.67 237.16 181.54C236.8 181.59 237.44 181.51 237.52 181.5C237.74 181.48 237.96 181.45 238.19 181.43C238.67 181.39 239.14 181.36 239.62 181.34C240.69 181.3 241.75 181.32 242.82 181.39C243.34 181.43 243.87 181.48 244.39 181.54C244.71 181.58 244.18 181.51 244.5 181.56C244.63 181.58 244.76 181.6 244.89 181.62C245.18 181.67 245.46 181.72 245.75 181.77C250.36 182.66 254.65 184.69 258.11 187.6C259.21 188.52 260.54 188.09 261.07 186.82C260.96 187.09 261.18 186.58 261.22 186.48C261.32 186.25 261.43 186.03 261.54 185.8C261.75 185.38 261.97 184.96 262.2 184.55C262.66 183.74 263.18 182.95 263.73 182.2C263.8 182.11 263.86 182.02 263.93 181.94C263.75 182.17 263.92 181.95 263.96 181.91C264.12 181.72 264.27 181.53 264.43 181.34C264.73 180.98 265.04 180.64 265.37 180.3C266.01 179.63 266.7 178.99 267.42 178.39C267.5 178.32 267.59 178.25 267.68 178.18C267.66 178.2 268.08 177.87 267.89 178.01C267.73 178.13 268 177.93 268.04 177.9C268.13 177.83 268.22 177.77 268.31 177.71C268.69 177.44 269.08 177.17 269.47 176.92C270.26 176.42 271.09 175.96 271.94 175.56C272.17 175.45 272.39 175.35 272.62 175.25C272.88 175.13 272.39 175.34 272.66 175.23C272.76 175.19 272.87 175.15 272.97 175.1C273.44 174.91 273.91 174.74 274.39 174.59C275.31 174.29 276.24 174.06 277.19 173.88C277.44 173.83 277.7 173.79 277.95 173.75C278.06 173.73 278.18 173.72 278.29 173.7C277.93 173.75 278.49 173.68 278.51 173.68C279.06 173.62 279.61 173.58 280.17 173.55C281.54 173.49 282.91 173.56 284.26 173.74C285.18 173.86 286.07 172.84 286.03 171.97C285.98 170.91 285.25 170.33 284.26 170.2C275.64 169.09 266.74 172.69 261.37 179.54C259.83 181.5 258.62 183.59 257.67 185.89C258.66 185.63 259.64 185.37 260.63 185.11C257.09 182.14 252.97 179.94 248.49 178.78C244.12 177.65 239.54 177.52 235.11 178.32C227.35 179.72 220.42 184.27 215.81 190.62C213.27 194.13 211.5 198.22 210.66 202.47C211.39 202.06 212.11 201.65 212.84 201.23C207.76 200.18 202.44 200.95 197.96 203.63C193.94 206.03 190.88 209.77 189.22 214.14C188.28 216.63 187.86 219.35 187.97 222.01C188.4 221.44 188.84 220.87 189.27 220.3C184.09 221.95 179.74 225.77 177.6 230.78C175.31 236.13 175.59 242.33 178.44 247.43C180.01 250.24 182.33 252.6 185.07 254.29C185.88 254.79 187.02 254.47 187.49 253.65C187.98 252.83 187.67 251.76 186.85 251.26Z"
                    fill="black" />
                  <path
                    d="M183.4 281.99C181.65 279.48 180.57 277 179.97 274.02C179.44 271.38 179.49 268.24 180.05 265.68C180.19 265.03 180.37 264.38 180.57 263.74C180.68 263.39 180.8 263.05 180.92 262.71C180.97 262.57 181.03 262.43 181.08 262.29C181.11 262.21 181.15 262.12 181.18 262.04C181.12 262.19 181.13 262.16 181.21 261.97C181.77 260.72 182.42 259.51 183.2 258.38C183.4 258.09 183.61 257.8 183.82 257.51C184.03 257.23 183.92 257.39 183.87 257.45C183.98 257.31 184.09 257.17 184.2 257.04C184.65 256.49 185.13 255.97 185.63 255.47C186.66 254.44 187.56 253.71 188.68 252.96C189.37 252.5 190.09 252.08 190.82 251.7C191.61 251.29 192.14 251.06 192.87 250.79C194.35 250.24 196.23 249.78 197.55 249.62C198.56 249.5 199.24 248.9 199.32 247.85C199.34 247.6 199.36 247.35 199.39 247.1C199.4 246.99 199.41 246.88 199.43 246.77C199.47 246.45 199.36 247.19 199.44 246.66C199.52 246.17 199.6 245.68 199.71 245.19C199.91 244.26 200.17 243.34 200.5 242.44C200.57 242.24 200.65 242.03 200.73 241.83C200.78 241.7 200.83 241.58 200.88 241.45C200.85 241.52 200.75 241.74 200.89 241.43C201.09 240.99 201.29 240.55 201.51 240.12C201.94 239.29 202.42 238.49 202.95 237.72C203.09 237.52 203.22 237.33 203.37 237.14C203.43 237.05 203.5 236.97 203.56 236.88C203.37 237.13 203.54 236.91 203.58 236.86C203.88 236.49 204.18 236.12 204.5 235.77C205.14 235.06 205.82 234.39 206.55 233.77C206.71 233.63 206.87 233.5 207.04 233.36C207.12 233.29 207.21 233.23 207.29 233.16C207.05 233.35 207.26 233.18 207.31 233.15C207.72 232.85 208.13 232.56 208.55 232.28C209.33 231.77 210.15 231.31 210.99 230.9C211.23 230.78 211.48 230.67 211.72 230.56C212.03 230.42 211.81 230.52 211.74 230.55C211.89 230.49 212.04 230.43 212.19 230.37C212.69 230.17 213.21 229.99 213.72 229.83C214.77 229.5 215.84 229.26 216.92 229.09C217.48 229 218.04 228.4 218.16 227.85C218.31 227.13 218.49 226.41 218.71 225.71C218.81 225.37 218.93 225.04 219.05 224.71C219.11 224.53 219.18 224.36 219.25 224.18C219.28 224.1 219.31 224.03 219.34 223.95C219.46 223.64 219.3 224.04 219.38 223.85C219.96 222.53 220.66 221.26 221.48 220.08C221.68 219.8 221.88 219.52 222.09 219.24C221.89 219.5 222.2 219.11 222.26 219.04C222.38 218.9 222.5 218.75 222.62 218.61C223.1 218.05 223.61 217.51 224.15 216.99C224.67 216.49 225.21 216.03 225.77 215.58C225.93 215.45 225.75 215.59 225.73 215.61C225.81 215.55 225.9 215.48 225.98 215.42C226.11 215.33 226.24 215.23 226.37 215.14C226.67 214.92 226.98 214.72 227.3 214.52C227.93 214.12 228.58 213.75 229.25 213.42C229.56 213.26 229.88 213.11 230.2 212.97C230.27 212.94 230.35 212.9 230.42 212.87C230.39 212.88 230.18 212.97 230.37 212.89C230.57 212.81 230.77 212.73 230.97 212.65C232.38 212.12 233.84 211.73 235.32 211.5C235.42 211.48 235.81 211.43 235.51 211.47C235.7 211.45 235.9 211.42 236.09 211.4C236.48 211.36 236.87 211.33 237.27 211.31C238.09 211.27 238.91 211.27 239.73 211.32C240.7 211.38 241.16 211.44 241.98 211.59C242.83 211.75 243.68 211.95 244.51 212.21C244.95 212.35 245.38 212.49 245.81 212.66C246.04 212.75 246.27 212.83 246.49 212.93C246.45 212.91 246.3 212.85 246.49 212.93C246.6 212.98 246.71 213.03 246.82 213.08C247.67 213.47 248.5 213.92 249.29 214.41C249.67 214.65 250.05 214.9 250.42 215.16C250.88 215.49 250.87 215.48 251.28 215.81C252.02 216.42 252.72 217.08 253.38 217.77C253.98 218.4 254.8 218.36 255.53 218.05C257.5 217.21 259.95 216.51 262.21 216.13C264.46 215.75 267.01 215.67 269.43 215.84C270.36 215.91 271.24 214.98 271.2 214.07C271.15 213.05 270.42 212.37 269.43 212.3C264.04 211.92 258.7 212.87 253.74 214.99C254.46 215.08 255.17 215.17 255.89 215.27C250.83 209.95 243.42 207.11 236.09 207.85C229.56 208.51 223.47 211.76 219.42 216.95C217.14 219.87 215.52 223.26 214.76 226.89C215.17 226.48 215.58 226.07 216 225.65C207.57 226.98 200.49 232.91 197.38 240.79C196.49 243.04 196.01 245.42 195.83 247.83C196.42 247.24 197.01 246.65 197.6 246.06C190.94 246.87 184.98 250.23 180.91 255.58C177.02 260.69 175.46 267.24 176.35 273.57C176.86 277.22 178.27 280.75 180.37 283.77C180.92 284.55 181.92 284.92 182.79 284.41C183.54 283.96 183.94 282.78 183.4 281.99Z"
                    fill="black" />
                  <path
                    d="M106.64 254.36C111.68 251.25 114.94 246.01 115.57 240.13C116.15 234.64 114.11 229.03 110.25 225.11C108.08 222.91 105.38 221.3 102.44 220.36C102.87 220.93 103.31 221.5 103.74 222.07C103.94 217.23 102.35 212.48 99.39 208.67C96.59 205.07 92.55 202.45 88.11 201.39C85.07 200.66 81.94 200.67 78.88 201.3C79.61 201.71 80.33 202.12 81.06 202.54C79.54 194.81 74.96 187.94 68.54 183.4C61.71 178.57 53.01 176.86 44.83 178.49C39.75 179.5 35.05 181.87 31.09 185.19C32.08 185.45 33.06 185.71 34.05 185.97C30.81 178.17 23.92 172.19 15.55 170.57C12.88 170.05 10.16 169.94 7.46 170.28C6.54 170.4 5.63998 171.01 5.68998 172.05C5.72998 172.91 6.48 173.95 7.46 173.82C8.67 173.66 9.88996 173.59 11.11 173.62C11.61 173.63 12.1 173.66 12.6 173.7C12.83 173.72 13.06 173.74 13.29 173.77C13.33 173.78 13.69 173.82 13.48 173.79C13.27 173.76 13.72 173.83 13.76 173.83C14.72 173.98 15.66 174.19 16.59 174.45C17.05 174.58 17.5 174.73 17.95 174.89C18.16 174.96 18.37 175.04 18.58 175.12C18.65 175.15 19.3 175.42 19.01 175.29C20.73 176.04 22.36 176.99 23.87 178.13C23.62 177.94 24.1599 178.36 24.2199 178.41C24.3899 178.55 24.5599 178.69 24.7199 178.83C25.0899 179.15 25.46 179.49 25.81 179.84C26.48 180.49 27.1 181.19 27.69 181.92C27.72 181.95 27.93 182.22 27.81 182.07C27.69 181.91 27.9499 182.25 27.9699 182.29C28.1299 182.51 28.29 182.74 28.45 182.96C28.75 183.39 29.03 183.83 29.3 184.28C29.57 184.73 29.82 185.19 30.06 185.66C30.19 185.91 30.31 186.16 30.42 186.41C30.47 186.51 30.51 186.61 30.56 186.71C30.59 186.77 30.77 187.22 30.64 186.9C31.17 188.17 32.5 188.6 33.6 187.68C34.4 187.01 34.98 186.57 35.93 185.95C36.82 185.36 37.73 184.83 38.68 184.34C40.51 183.4 42.25 182.75 44.37 182.21C46.55 181.66 48.31 181.43 50.58 181.4C51.56 181.39 52.54 181.42 53.52 181.51C53.74 181.53 53.96 181.55 54.19 181.58C54.3 181.59 54.88 181.67 54.55 181.62C55.04 181.69 55.53 181.77 56.02 181.86C57.78 182.2 59.51 182.7 61.17 183.36C61.27 183.4 61.3699 183.44 61.4699 183.48C61.9499 183.67 61.28 183.4 61.57 183.52C61.77 183.61 61.96 183.69 62.16 183.78C62.57 183.97 62.98 184.17 63.38 184.38C64.18 184.8 64.97 185.25 65.73 185.74C66.09 185.97 66.44 186.21 66.78 186.45C66.95 186.57 67.12 186.7 67.29 186.82C67.38 186.88 67.46 186.95 67.54 187.01C67.96 187.32 67.28 186.79 67.68 187.12C68.36 187.67 69.02 188.23 69.65 188.83C70.3 189.45 70.92 190.1 71.51 190.77C71.79 191.09 72.06 191.41 72.32 191.74C72.39 191.82 72.45 191.91 72.52 191.99C72.69 192.21 72.37 191.79 72.53 192.01C72.67 192.2 72.81 192.39 72.95 192.59C74.13 194.24 75.12 196 75.94 197.85C75.96 197.9 76.07 198.16 75.95 197.87C76 197.99 76.05 198.12 76.1 198.24C76.19 198.46 76.28 198.69 76.36 198.92C76.55 199.43 76.72 199.94 76.88 200.45C77.19 201.44 77.43 202.45 77.64 203.46C77.83 204.44 78.94 204.88 79.82 204.7C81.13 204.43 82.38 204.32 83.78 204.35C84.27 204.36 84.76 204.39 85.26 204.45C85.25 204.45 85.78 204.51 85.51 204.48C85.24 204.45 85.77 204.52 85.76 204.52C86.03 204.56 86.29 204.61 86.55 204.66C87.59 204.87 88.61 205.17 89.59 205.55C89.69 205.59 89.78 205.63 89.88 205.67C89.51 205.52 89.99 205.72 90.03 205.74C90.22 205.83 90.41 205.91 90.6 206.01C91.09 206.25 91.57 206.51 92.04 206.79C92.46 207.04 92.87 207.31 93.27 207.6C93.35 207.66 93.44 207.72 93.52 207.78C93.92 208.07 93.36 207.65 93.59 207.83C93.81 208.01 94.03 208.19 94.25 208.37C95.01 209.03 95.72 209.74 96.36 210.51C96.51 210.69 96.66 210.87 96.8 211.05C96.58 210.77 97.01 211.35 97.08 211.44C97.38 211.86 97.66 212.3 97.92 212.74C98.17 213.17 98.4 213.6 98.62 214.05C98.72 214.26 98.82 214.47 98.91 214.69C99.12 215.15 98.83 214.49 98.94 214.77C99.01 214.94 99.07 215.11 99.14 215.28C99.54 216.35 99.83 217.46 100.02 218.58C100.04 218.71 100.06 218.85 100.08 218.98C100.16 219.51 100.05 218.62 100.1 219.15C100.13 219.45 100.16 219.75 100.18 220.05C100.22 220.72 100.23 221.39 100.2 222.06C100.17 222.86 100.78 223.54 101.5 223.77C102.74 224.16 103.32 224.41 104.52 225.11C104.99 225.38 105.44 225.68 105.88 225.99C106.01 226.08 106.14 226.18 106.27 226.28C106.02 226.09 106.3 226.3 106.36 226.35C106.61 226.55 106.86 226.77 107.1 226.98C107.52 227.36 107.92 227.76 108.3 228.19C108.48 228.39 108.66 228.6 108.83 228.8C108.85 228.82 109.17 229.25 108.95 228.95C109.05 229.08 109.14 229.21 109.24 229.34C109.93 230.31 110.53 231.36 110.99 232.46C110.87 232.18 110.98 232.44 111 232.49C111.06 232.64 111.12 232.8 111.18 232.95C111.27 233.21 111.36 233.47 111.44 233.73C111.62 234.32 111.77 234.91 111.88 235.51C111.91 235.68 111.94 235.84 111.97 236.01C111.97 235.99 112.04 236.53 112.01 236.28C111.98 236.02 112.04 236.58 112.04 236.55C112.06 236.72 112.07 236.89 112.08 237.06C112.13 237.71 112.13 238.36 112.11 239.01C112.1 239.31 112.08 239.61 112.05 239.92C112.03 240.1 112.01 240.28 111.99 240.46C112.03 240.18 111.99 240.48 111.98 240.52C111.86 241.19 111.73 241.85 111.54 242.51C111.16 243.84 110.89 244.49 110.22 245.69C109.88 246.29 109.51 246.87 109.11 247.42C109.1 247.43 108.76 247.87 108.97 247.61C108.86 247.74 108.76 247.88 108.64 248.01C108.42 248.27 108.19 248.53 107.96 248.77C107.49 249.26 106.99 249.73 106.46 250.17C106.45 250.18 106.01 250.53 106.28 250.32C106.12 250.44 105.96 250.56 105.8 250.67C105.5 250.88 105.18 251.09 104.87 251.28C104.06 251.78 103.74 252.86 104.23 253.7C104.69 254.54 105.83 254.87 106.64 254.36Z"
                    fill="black" />
                  <path
                    d="M111.37 283.83C115.24 278.28 116.55 271.2 115.04 264.61C113.65 258.56 109.83 253.22 104.65 249.83C101.49 247.76 97.89 246.56 94.15 246.11C94.74 246.7 95.33 247.29 95.92 247.88C95.28 239.4 90.22 231.62 82.53 227.87C80.38 226.82 78.11 226.08 75.75 225.7C76.16 226.11 76.57 226.52 76.99 226.94C75.66 220.56 71.67 214.92 66.17 211.45C60.3 207.75 52.8399 206.79 46.2199 208.86C42.2899 210.09 38.71 212.33 35.87 215.31C36.59 215.22 37.3 215.13 38.02 215.03C33.06 212.91 27.73 211.95 22.33 212.34C21.41 212.41 20.51 213.11 20.56 214.11C20.6 215.01 21.34 215.95 22.33 215.88C24.75 215.71 27.3 215.79 29.55 216.17C31.81 216.55 34.26 217.25 36.23 218.09C36.95 218.4 37.79 218.43 38.38 217.81C38.94 217.22 39.52 216.66 40.14 216.14C40.3 216 40.46 215.87 40.62 215.74C40.67 215.7 41.01 215.44 40.83 215.57C41.19 215.3 41.56 215.04 41.93 214.79C42.61 214.34 43.31 213.93 44.04 213.55C44.39 213.37 44.75 213.2 45.1 213.04C45.18 213 45.27 212.97 45.35 212.93C45.28 212.96 45.1 213.03 45.43 212.9C45.63 212.82 45.83 212.74 46.03 212.67C49.22 211.48 52.17 211.1 55.58 211.43C55.77 211.45 55.97 211.47 56.16 211.49C56.37 211.52 56.13 211.49 56.1 211.48C56.21 211.5 56.32 211.51 56.43 211.53C56.81 211.59 57.19 211.66 57.57 211.74C58.29 211.89 59 212.08 59.71 212.31C60.05 212.42 60.38 212.53 60.71 212.65C60.89 212.72 61.06 212.78 61.24 212.85C61.31 212.88 61.39 212.91 61.46 212.94C61.29 212.87 61.35 212.89 61.48 212.95C62.16 213.26 62.84 213.59 63.49 213.96C64.12 214.31 64.72 214.7 65.31 215.11C65.44 215.2 65.57 215.29 65.7 215.39C65.77 215.44 66.16 215.74 65.91 215.55C66.2 215.78 66.49 216.02 66.77 216.26C67.31 216.73 67.83 217.22 68.32 217.74C68.58 218.01 68.82 218.28 69.07 218.57C69.17 218.69 69.28 218.81 69.38 218.93C69.43 218.99 69.48 219.05 69.53 219.11C69.52 219.1 69.81 219.47 69.69 219.31C69.57 219.16 69.73 219.37 69.74 219.38C69.8 219.47 69.87 219.55 69.93 219.64C70.06 219.81 70.18 219.99 70.3 220.16C70.53 220.49 70.74 220.82 70.95 221.17C71.38 221.88 71.77 222.61 72.12 223.36C72.21 223.55 72.3 223.75 72.38 223.95C72.25 223.66 72.44 224.11 72.48 224.2C72.63 224.58 72.77 224.96 72.89 225.34C73.16 226.17 73.39 227.02 73.57 227.87C73.68 228.41 74.24 229.02 74.81 229.11C75.79 229.26 76.75 229.48 77.7 229.75C78.12 229.87 78.53 230.01 78.94 230.15C79.17 230.23 79.4 230.32 79.62 230.41C79.72 230.45 79.82 230.49 79.92 230.53C80.04 230.58 80.02 230.57 79.87 230.51C79.94 230.54 80.02 230.57 80.09 230.61C80.94 230.99 81.77 231.43 82.57 231.92C82.96 232.16 83.34 232.4 83.71 232.66C83.91 232.8 84.1 232.94 84.29 233.08C84.38 233.14 84.46 233.21 84.54 233.27C84.34 233.12 84.52 233.26 84.62 233.34C85.34 233.92 86.03 234.55 86.67 235.22C87 235.56 87.32 235.92 87.63 236.28C87.77 236.44 87.9 236.61 88.04 236.77C88.11 236.85 88.17 236.94 88.24 237.02C88.02 236.73 88.33 237.15 88.35 237.17C88.9 237.92 89.41 238.71 89.86 239.52C90.08 239.92 90.29 240.32 90.49 240.73C90.58 240.92 90.67 241.12 90.76 241.31C90.8 241.41 90.85 241.51 90.89 241.61C90.75 241.28 90.93 241.72 90.96 241.78C91.36 242.79 91.68 243.83 91.93 244.89C92.05 245.4 92.15 245.91 92.23 246.43C92.25 246.57 92.27 246.7 92.29 246.84C92.25 246.58 92.29 246.82 92.3 246.95C92.33 247.26 92.36 247.56 92.39 247.87C92.47 248.92 93.14 249.52 94.16 249.64C94.56 249.69 95.42 249.84 96.04 249.98C96.8 250.15 97.56 250.37 98.3 250.62C99.62 251.07 100.76 251.6 102.07 252.38C104.26 253.68 106.5 255.66 107.91 257.55C108.73 258.65 109.45 259.81 110.06 261.03C110.4 261.72 110.53 262.02 110.75 262.58C111.01 263.26 111.23 263.95 111.43 264.65C111.83 266.12 112.01 267.2 112.1 268.56C112.15 269.27 112.16 269.99 112.14 270.7C112.13 271.11 112.11 271.52 112.07 271.93C112.06 272.07 112.05 272.2 112.03 272.34C112.02 272.47 112 272.61 111.99 272.74C111.96 272.96 111.96 273.01 111.97 272.87C111.48 276.3 110.3 279.21 108.33 282.03C107.78 282.82 108.19 284 108.97 284.45C109.83 284.98 110.82 284.61 111.37 283.83Z"
                    fill="black" />
                  <path
                    d="M145.01 41.38L83.97 155.39L135.03 137.67L146.76 155.39L159 137.67L207.32 155.39L145.01 41.38Z"
                    fill="#00FF00" />
                  <path
                    d="M143.48 40.49C142.93 41.51 142.39 42.53 141.84 43.55C140.36 46.31 138.89 49.06 137.41 51.82C135.21 55.92 133.02 60.02 130.82 64.12C128.15 69.11 125.48 74.1 122.81 79.09C119.88 84.55 116.96 90.02 114.03 95.48C111.08 100.99 108.13 106.51 105.17 112.02C102.42 117.16 99.66 122.3 96.91 127.45C94.58 131.8 92.26 136.14 89.93 140.49C88.26 143.62 86.58 146.74 84.91 149.87C84.12 151.35 83.3 152.83 82.53 154.32C82.5 154.38 82.46 154.44 82.43 154.51C81.75 155.78 82.89 157.64 84.43 157.11C86.12 156.52 87.82 155.93 89.51 155.35C93.58 153.94 97.65 152.53 101.71 151.12C106.61 149.42 111.51 147.72 116.41 146.02C120.68 144.54 124.95 143.06 129.22 141.58C130.62 141.1 132.01 140.61 133.41 140.13C134.07 139.9 134.76 139.71 135.4 139.44C135.43 139.43 135.46 139.42 135.49 139.41C134.82 139.14 134.16 138.87 133.49 138.6C134.81 140.59 136.13 142.59 137.45 144.58C139.56 147.76 141.66 150.94 143.77 154.12C144.25 154.85 144.74 155.58 145.22 156.32C145.99 157.48 147.51 157.44 148.28 156.32C149.65 154.33 151.03 152.34 152.4 150.36C154.6 147.17 156.81 143.98 159.01 140.79C159.51 140.06 160.02 139.33 160.52 138.6C159.85 138.87 159.19 139.14 158.52 139.41C160.12 140 161.71 140.58 163.31 141.17C167.17 142.58 171.02 144 174.88 145.41C179.53 147.11 184.17 148.82 188.82 150.52C192.85 152 196.88 153.48 200.92 154.95C202.24 155.43 203.56 155.92 204.89 156.4C205.51 156.63 206.14 156.9 206.77 157.09C206.8 157.1 206.82 157.11 206.85 157.12C208.38 157.68 209.54 155.78 208.85 154.52C208.29 153.5 207.74 152.48 207.18 151.46C205.66 148.69 204.15 145.91 202.63 143.14C200.4 139.05 198.16 134.97 195.93 130.88C193.21 125.9 190.48 120.92 187.76 115.93C184.78 110.47 181.79 105.02 178.81 99.56C175.79 94.03 172.77 88.51 169.75 82.98C166.93 77.83 164.12 72.68 161.3 67.52C158.93 63.18 156.56 58.84 154.18 54.5C152.47 51.38 150.77 48.26 149.06 45.13C148.25 43.65 147.46 42.15 146.63 40.68C146.59 40.62 146.56 40.55 146.53 40.49C146.07 39.65 144.92 39.38 144.11 39.85C143.26 40.35 143.01 41.43 143.47 42.27C144.03 43.29 144.58 44.31 145.14 45.33C146.66 48.1 148.17 50.88 149.69 53.65C151.92 57.74 154.16 61.82 156.39 65.91C159.11 70.89 161.84 75.87 164.56 80.86C167.54 86.32 170.53 91.77 173.51 97.23C176.53 102.76 179.55 108.28 182.57 113.81C185.39 118.96 188.2 124.11 191.02 129.27C193.39 133.61 195.76 137.95 198.14 142.29C199.85 145.41 201.55 148.53 203.26 151.66C204.07 153.14 204.84 154.65 205.69 156.11C205.73 156.17 205.76 156.24 205.79 156.3C206.46 155.43 207.12 154.57 207.79 153.7C206.19 153.11 204.6 152.53 203 151.94C199.14 150.53 195.29 149.11 191.43 147.7C186.78 146 182.14 144.29 177.49 142.59C173.46 141.11 169.43 139.63 165.39 138.16C164.07 137.68 162.75 137.19 161.42 136.71C160.8 136.48 160.17 136.21 159.54 136.02C159.51 136.01 159.49 136 159.46 135.99C158.69 135.71 157.88 136.19 157.46 136.8C156.09 138.79 154.71 140.78 153.34 142.76C151.14 145.95 148.93 149.14 146.73 152.33C146.23 153.06 145.72 153.79 145.22 154.52C146.24 154.52 147.26 154.52 148.28 154.52C146.96 152.53 145.64 150.53 144.32 148.54C142.21 145.36 140.11 142.18 138 139C137.52 138.27 137.03 137.54 136.55 136.8C136.14 136.18 135.31 135.72 134.55 135.99C132.86 136.58 131.16 137.17 129.47 137.75C125.4 139.16 121.33 140.57 117.27 141.98C112.37 143.68 107.47 145.38 102.57 147.08C98.3 148.56 94.03 150.04 89.76 151.52C87.71 152.23 85.58 152.83 83.58 153.66C83.55 153.67 83.52 153.68 83.49 153.69C84.16 154.56 84.82 155.42 85.49 156.29C86.04 155.27 86.58 154.25 87.13 153.23C88.61 150.47 90.08 147.72 91.56 144.96C93.76 140.86 95.95 136.76 98.15 132.66C100.82 127.67 103.49 122.68 106.16 117.69C109.09 112.23 112.01 106.76 114.94 101.3C117.89 95.79 120.84 90.27 123.8 84.76C126.55 79.62 129.31 74.48 132.06 69.33C134.39 64.98 136.71 60.64 139.04 56.29C140.71 53.16 142.39 50.04 144.06 46.91C144.85 45.43 145.66 43.95 146.44 42.46C146.47 42.4 146.51 42.34 146.54 42.27C146.99 41.43 146.75 40.34 145.9 39.85C145.1 39.38 143.93 39.64 143.48 40.49Z"
                    fill="black" />
                  <path d="M159 137.67L145.01 41.38L135.03 137.67"
                    fill="#00FF00" />
                  <path
                    d="M160.71 137.2C160.58 136.34 160.46 135.47 160.33 134.61C159.99 132.28 159.65 129.94 159.31 127.61C158.81 124.16 158.31 120.71 157.81 117.26C157.2 113.05 156.59 108.84 155.98 104.64C155.31 100.01 154.63 95.38 153.96 90.75C153.28 86.1 152.61 81.44 151.93 76.79C151.3 72.45 150.67 68.11 150.04 63.77C149.51 60.1 148.97 56.43 148.44 52.76C148.06 50.11 147.67 47.46 147.29 44.81C147.11 43.56 146.97 42.3 146.75 41.06C146.74 41.01 146.73 40.95 146.73 40.9C146.6 40.03 145.56 39.53 144.79 39.63C143.86 39.75 143.35 40.48 143.25 41.37C143.16 42.23 143.07 43.08 142.98 43.94C142.74 46.27 142.5 48.6 142.26 50.94C141.9 54.39 141.55 57.84 141.19 61.29C140.75 65.52 140.31 69.75 139.88 73.98C139.4 78.59 138.92 83.21 138.45 87.82C137.97 92.48 137.49 97.13 137 101.79C136.55 106.13 136.1 110.47 135.65 114.82C135.27 118.49 134.89 122.16 134.51 125.83C134.24 128.47 133.96 131.11 133.69 133.75C133.56 135 133.39 136.25 133.3 137.51C133.3 137.56 133.29 137.62 133.28 137.67C133.18 138.59 134.16 139.48 135.05 139.44C136.09 139.39 136.72 138.66 136.82 137.67C136.91 136.81 137 135.96 137.09 135.1C137.33 132.77 137.57 130.44 137.81 128.1C138.17 124.65 138.52 121.2 138.88 117.75C139.32 113.52 139.76 109.29 140.19 105.06C140.67 100.45 141.15 95.83 141.62 91.22C142.1 86.56 142.58 81.91 143.07 77.25C143.52 72.91 143.97 68.57 144.42 64.22C144.8 60.55 145.18 56.88 145.56 53.21C145.83 50.57 146.11 47.93 146.38 45.29C146.51 44.04 146.69 42.79 146.77 41.53C146.77 41.48 146.78 41.42 146.79 41.37C145.63 41.53 144.47 41.68 143.31 41.84C143.44 42.7 143.56 43.57 143.69 44.43C144.03 46.76 144.37 49.1 144.71 51.43C145.21 54.88 145.71 58.33 146.21 61.78C146.82 65.99 147.43 70.2 148.04 74.4C148.71 79.03 149.39 83.66 150.06 88.29C150.74 92.94 151.41 97.6 152.09 102.25C152.72 106.59 153.35 110.93 153.98 115.27C154.51 118.94 155.05 122.61 155.58 126.28C155.96 128.93 156.35 131.58 156.73 134.23C156.91 135.48 157.05 136.74 157.27 137.98C157.28 138.03 157.29 138.09 157.29 138.14C157.43 139.09 158.63 139.61 159.47 139.38C160.49 139.1 160.85 138.15 160.71 137.2Z"
                    fill="black" />
                  <path
                    d="M148.48 155.47C148.47 154.5 148.47 153.54 148.46 152.57C148.44 149.95 148.42 147.33 148.4 144.71C148.37 140.82 148.34 136.93 148.32 133.04C148.29 128.31 148.25 123.59 148.22 118.86C148.18 113.68 148.14 108.51 148.11 103.33C148.07 98.09 148.03 92.84 148 87.6C147.96 82.73 147.93 77.86 147.89 72.98C147.86 68.85 147.83 64.71 147.8 60.58C147.78 57.62 147.76 54.66 147.74 51.7C147.73 50.3 147.74 48.89 147.71 47.48C147.71 47.42 147.71 47.36 147.71 47.3C147.7 46.37 146.9 45.49 145.94 45.53C144.99 45.57 144.16 46.31 144.17 47.3C144.18 48.27 144.18 49.23 144.19 50.2C144.21 52.82 144.23 55.44 144.25 58.06C144.28 61.95 144.31 65.84 144.33 69.73C144.36 74.46 144.4 79.18 144.43 83.91C144.47 89.09 144.51 94.26 144.54 99.44C144.58 104.68 144.62 109.93 144.65 115.17C144.69 120.04 144.72 124.91 144.76 129.79C144.79 133.92 144.82 138.06 144.85 142.19C144.87 145.15 144.89 148.11 144.91 151.07C144.92 152.47 144.91 153.88 144.94 155.29C144.94 155.35 144.94 155.41 144.94 155.47C144.95 156.4 145.75 157.28 146.71 157.24C147.66 157.2 148.49 156.46 148.48 155.47Z"
                    fill="black" />
                  <path
                    d="M147.35 258.19C147.35 257.37 147.35 256.54 147.35 255.72C147.35 253.48 147.35 251.24 147.35 249C147.35 245.69 147.35 242.38 147.35 239.07C147.35 235.03 147.35 230.99 147.35 226.95C147.35 222.52 147.35 218.1 147.35 213.67C147.35 209.2 147.35 204.73 147.35 200.27C147.35 196.1 147.35 191.94 147.35 187.77C147.35 184.25 147.35 180.73 147.35 177.21C147.35 174.68 147.35 172.14 147.35 169.61C147.35 168.41 147.37 167.21 147.35 166.01C147.35 165.96 147.35 165.91 147.35 165.85C147.35 164.92 146.54 164.04 145.58 164.08C144.62 164.12 143.81 164.86 143.81 165.85C143.81 166.67 143.81 167.5 143.81 168.32C143.81 170.56 143.81 172.8 143.81 175.04C143.81 178.35 143.81 181.66 143.81 184.97C143.81 189.01 143.81 193.05 143.81 197.09C143.81 201.52 143.81 205.94 143.81 210.37C143.81 214.84 143.81 219.31 143.81 223.77C143.81 227.94 143.81 232.1 143.81 236.27C143.81 239.79 143.81 243.31 143.81 246.83C143.81 249.36 143.81 251.9 143.81 254.43C143.81 255.63 143.79 256.83 143.81 258.03C143.81 258.08 143.81 258.13 143.81 258.19C143.81 259.12 144.62 260 145.58 259.96C146.54 259.91 147.35 259.18 147.35 258.19Z"
                    fill="black" />
                  <path
                    d="M165.18 229.98C165.18 228.16 165.18 226.33 165.18 224.51C165.18 220.13 165.18 215.75 165.18 211.36C165.18 206.04 165.18 200.71 165.18 195.39C165.18 190.8 165.18 186.22 165.18 181.63C165.18 179.4 165.25 177.16 165.18 174.94C165.18 174.91 165.18 174.88 165.18 174.84C165.18 173.94 164.37 173.08 163.41 173.12C162.45 173.16 161.64 173.87 161.64 174.84C161.64 176.66 161.64 178.49 161.64 180.31C161.64 184.69 161.64 189.07 161.64 193.46C161.64 198.78 161.64 204.11 161.64 209.43C161.64 214.02 161.64 218.6 161.64 223.19C161.64 225.42 161.57 227.66 161.64 229.88C161.64 229.91 161.64 229.94 161.64 229.98C161.64 230.88 162.45 231.74 163.41 231.7C164.37 231.65 165.18 230.94 165.18 229.98Z"
                    fill="black" />
                  <path
                    d="M129.99 229.47C129.99 227.66 129.99 225.84 129.99 224.03C129.99 219.69 129.99 215.36 129.99 211.02C129.99 205.76 129.99 200.49 129.99 195.23C129.99 190.7 129.99 186.16 129.99 181.63C129.99 179.42 130.05 177.21 129.99 175C129.99 174.97 129.99 174.94 129.99 174.9C129.99 173.97 129.18 173.09 128.22 173.13C127.26 173.17 126.45 173.91 126.45 174.9C126.45 176.71 126.45 178.53 126.45 180.34C126.45 184.68 126.45 189.01 126.45 193.35C126.45 198.61 126.45 203.88 126.45 209.14C126.45 213.67 126.45 218.21 126.45 222.74C126.45 224.95 126.39 227.16 126.45 229.37C126.45 229.4 126.45 229.43 126.45 229.47C126.45 230.4 127.26 231.28 128.22 231.24C129.18 231.2 129.99 230.46 129.99 229.47Z"
                    fill="black" />
                </svg>
