<svg width="290" height="290" viewBox="0 0 290 290" fill="none" xmlns="http://www.w3.org/2000/svg">
                  <path d="M282.32 145C282.04 202.01 245.95 254.51 192.12 274.04C137.86 293.72 75.9598 276.8 39.1098 232.46C2.20984 188.07 -2.35016 123.09 27.5498 73.81C57.2298 24.89 115.96 -1.01001 172.1 10.34C227.72 21.58 271.55 67.25 280.63 123.24C281.79 130.44 282.28 137.72 282.32 145C282.34 149.82 289.84 149.83 289.82 145C289.53 84.71 251.41 29.83 194.73 8.95998C137.86 -11.98 71.8799 6.00998 33.3799 52.74C-5.30014 99.7 -10.5701 167.84 21.0599 219.97C52.4299 271.67 114.12 298.73 173.42 287.02C232.09 275.43 279.06 226.56 288.06 167.4C289.19 159.98 289.77 152.51 289.81 145C289.84 140.17 282.34 140.17 282.32 145Z" fill="black"></path>
                  <path d="M143 220.36C183.079 220.36 215.57 187.869 215.57 147.79C215.57 107.711 183.079 75.22 143 75.22C102.92 75.22 70.4297 107.711 70.4297 147.79C70.4297 187.869 102.92 220.36 143 220.36Z" fill="#00FF00"></path>
                  <path d="M213.55 147.8C213.55 149.73 213.47 151.66 213.32 153.59C213.25 154.52 213.15 155.46 213.04 156.39C213.01 156.62 212.98 156.85 212.95 157.09C212.95 157.1 212.91 157.43 212.93 157.22C212.96 156.99 212.91 157.4 212.9 157.45C212.84 157.91 212.77 158.37 212.69 158.83C212.1 162.52 211.22 166.16 210.07 169.71C209.51 171.43 208.89 173.13 208.2 174.81C208.17 174.89 207.94 175.43 208.07 175.13C207.98 175.34 207.89 175.54 207.8 175.75C207.61 176.19 207.41 176.63 207.21 177.07C206.84 177.89 206.45 178.69 206.04 179.49C204.41 182.7 202.55 185.8 200.46 188.73C199.93 189.48 199.38 190.22 198.82 190.95C199.01 190.71 198.72 191.07 198.67 191.15C198.53 191.32 198.39 191.5 198.26 191.67C197.96 192.04 197.66 192.41 197.36 192.78C196.22 194.14 195.04 195.47 193.81 196.75C192.56 198.05 191.25 199.3 189.91 200.51C189.25 201.1 188.58 201.68 187.89 202.25C187.55 202.53 187.2 202.81 186.86 203.09C186.69 203.23 186.51 203.37 186.34 203.5C186.27 203.56 186.19 203.62 186.11 203.68C185.83 203.9 186.47 203.41 185.99 203.77C183.12 205.94 180.12 207.92 176.96 209.66C175.36 210.54 173.73 211.36 172.07 212.12C171.69 212.29 171.31 212.46 170.93 212.63C170.72 212.72 170.52 212.81 170.31 212.9C170.6 212.78 170.01 213.02 169.9 213.07C169.06 213.41 168.22 213.74 167.37 214.05C163.91 215.32 160.35 216.31 156.74 217.03C152.96 217.78 149.74 218.16 145.75 218.31C141.93 218.45 138.1 218.3 134.3 217.85C134.07 217.82 133.84 217.79 133.61 217.76C133.37 217.73 133.61 217.76 133.65 217.77C133.52 217.75 133.39 217.73 133.25 217.72C132.79 217.65 132.33 217.59 131.87 217.51C130.96 217.36 130.05 217.2 129.14 217.02C127.31 216.65 125.49 216.21 123.7 215.7C121.92 215.2 120.16 214.62 118.43 213.98C117.58 213.67 116.74 213.34 115.91 213C115.79 212.95 115.67 212.9 115.55 212.85C115.59 212.87 115.8 212.96 115.59 212.86C115.38 212.77 115.18 212.68 114.97 212.59C114.56 212.41 114.15 212.23 113.74 212.04C110.43 210.52 107.24 208.75 104.2 206.75C102.71 205.77 101.26 204.74 99.8498 203.66C100.11 203.86 99.6498 203.5 99.5798 203.45C99.4098 203.31 99.2298 203.17 99.0598 203.04C98.6898 202.74 98.3198 202.44 97.9598 202.14C97.2798 201.57 96.6098 200.99 95.9498 200.4C93.2898 198.01 90.7998 195.42 88.5098 192.66C88.2298 192.32 87.9498 191.97 87.6698 191.63C87.5298 191.46 87.3898 191.28 87.2598 191.11C87.1998 191.04 87.1398 190.96 87.0798 190.88C87.2098 191.05 87.1198 190.94 87.0498 190.83C86.4898 190.1 85.9498 189.36 85.4098 188.6C84.3598 187.12 83.3698 185.6 82.4398 184.04C81.5198 182.51 80.6598 180.94 79.8598 179.34C79.4598 178.54 79.0698 177.73 78.6998 176.91C78.5098 176.5 78.3298 176.09 78.1498 175.68C78.0998 175.57 77.8998 175.1 77.9498 175.21C78.0298 175.4 77.9098 175.1 77.8998 175.09C77.8398 174.94 77.7798 174.79 77.7198 174.64C76.3398 171.24 75.2098 167.74 74.3598 164.17C73.9198 162.34 73.5598 160.5 73.2698 158.64C73.1998 158.21 73.1398 157.79 73.0798 157.36C73.0698 157.3 73.0298 156.97 73.0698 157.3C73.0598 157.2 73.0398 157.1 73.0298 157C72.9998 156.74 72.9598 156.47 72.9298 156.21C72.8198 155.28 72.7298 154.34 72.6598 153.41C72.3698 149.59 72.3798 145.75 72.6798 141.93C72.7598 140.96 72.8498 140 72.9698 139.03C72.9998 138.8 73.0298 138.57 73.0598 138.34C73.0198 138.66 73.0798 138.18 73.0998 138.08C73.1698 137.59 73.2398 137.1 73.3198 136.6C73.6198 134.75 73.9898 132.91 74.4398 131.08C75.3098 127.52 76.4598 124.03 77.8498 120.64C77.8898 120.55 77.9198 120.46 77.9598 120.37C77.8298 120.67 77.9598 120.37 77.9798 120.32C78.0598 120.14 78.1298 119.97 78.2098 119.79C78.3998 119.35 78.5998 118.91 78.7998 118.47C79.1898 117.63 79.5898 116.79 80.0198 115.96C80.8298 114.37 81.6998 112.8 82.6298 111.27C84.5398 108.12 86.5698 105.29 88.7398 102.69C91.0398 99.94 93.5398 97.37 96.2198 94.99C96.8798 94.4 97.5598 93.82 98.2398 93.26C98.5798 92.98 98.9298 92.7 99.2798 92.42C99.4298 92.3 99.5798 92.18 99.7298 92.07C99.7698 92.04 100.08 91.8 99.8998 91.94C99.7498 92.05 100.05 91.83 100.07 91.81C101.51 90.71 102.99 89.67 104.51 88.68C107.54 86.71 110.71 84.97 114 83.48C114.41 83.29 114.82 83.11 115.23 82.93C115.31 82.89 115.85 82.67 115.55 82.79C115.79 82.69 116.03 82.59 116.26 82.5C117.1 82.16 117.94 81.84 118.79 81.53C120.5 80.91 122.23 80.36 123.98 79.87C125.78 79.37 127.6 78.94 129.43 78.58C130.34 78.4 131.25 78.24 132.16 78.1C132.62 78.03 133.08 77.96 133.54 77.9C133.78 77.87 133.54 77.9 133.5 77.91C133.63 77.89 133.76 77.88 133.9 77.86C134.16 77.83 134.43 77.8 134.7 77.77C138.5 77.34 142.33 77.21 146.16 77.37C148.07 77.45 149.98 77.61 151.88 77.84C152.08 77.86 152.28 77.89 152.48 77.92C152.14 77.88 152.74 77.96 152.84 77.97C153.33 78.04 153.82 78.12 154.32 78.2C155.23 78.35 156.14 78.52 157.05 78.7C160.69 79.44 164.27 80.47 167.75 81.76C169.62 82.45 170.7 82.91 172.44 83.71C174.1 84.48 175.72 85.31 177.31 86.19C178.87 87.06 180.39 87.99 181.88 88.97C182.65 89.48 183.41 90 184.16 90.54C184.5 90.78 184.83 91.02 185.16 91.27C185.34 91.4 185.52 91.54 185.69 91.67C185.79 91.74 186.28 92.13 186.04 91.93C188.87 94.12 191.54 96.53 194.01 99.12C195.26 100.43 196.46 101.78 197.61 103.17C197.89 103.51 198.17 103.86 198.45 104.21C198.57 104.36 198.69 104.51 198.8 104.66C198.83 104.7 199.03 104.96 198.84 104.71C198.92 104.81 198.99 104.91 199.07 105.01C199.61 105.72 200.13 106.44 200.64 107.16C202.73 110.13 204.6 113.26 206.22 116.51C206.62 117.31 207.01 118.12 207.38 118.94C207.57 119.35 207.75 119.76 207.93 120.17C207.97 120.26 208.15 120.69 208.03 120.4C208.13 120.64 208.23 120.88 208.32 121.11C209.01 122.82 209.64 124.55 210.2 126.31C211.33 129.84 212.18 133.46 212.75 137.12C212.82 137.58 212.89 138.04 212.95 138.5C212.91 138.17 212.98 138.77 212.99 138.86C213.02 139.09 213.05 139.32 213.07 139.56C213.17 140.46 213.26 141.36 213.33 142.26C213.48 144.07 213.55 145.93 213.55 147.8C213.55 148.89 214.47 149.81 215.56 149.81C216.65 149.81 217.57 148.89 217.57 147.8C217.56 140.03 216.37 132.23 213.96 124.83C211.64 117.69 208.25 110.88 203.9 104.77C199.49 98.58 194.21 93.12 188.18 88.49C182.23 83.92 175.58 80.31 168.54 77.73C161.28 75.07 153.58 73.59 145.86 73.29C138.05 72.99 130.16 73.92 122.64 76.05C115.4 78.1 108.45 81.27 102.17 85.4C95.9298 89.5 90.2898 94.52 85.5398 100.29C80.6998 106.17 76.7998 112.7 73.8998 119.75C70.9798 126.88 69.2398 134.45 68.6398 142.13C68.0298 149.95 68.6898 157.9 70.5398 165.52C72.3198 172.85 75.2498 179.93 79.1598 186.38C83.0298 192.76 87.8698 198.59 93.4498 203.54C99.0398 208.49 105.34 212.64 112.15 215.71C119.26 218.92 126.76 220.99 134.51 221.89C142.33 222.8 150.3 222.43 158.01 220.86C165.43 219.36 172.63 216.67 179.25 212.99C185.77 209.36 191.77 204.72 196.92 199.31C202.06 193.92 206.42 187.76 209.74 181.09C213.13 174.27 215.5 166.94 216.66 159.41C217.25 155.57 217.56 151.7 217.57 147.81C217.57 146.72 216.65 145.8 215.56 145.8C214.47 145.79 213.55 146.71 213.55 147.8Z" fill="black"></path>
                  <path d="M165.03 115.92C165.38 116.16 165.73 116.4 166.08 116.65C166.24 116.76 166.4 116.88 166.55 117C166.62 117.06 167.08 117.4 166.85 117.22C167.52 117.74 168.17 118.28 168.81 118.85C170.08 119.97 171.29 121.18 172.41 122.45C172.97 123.09 173.52 123.74 174.04 124.41C173.86 124.18 174.15 124.56 174.2 124.63C174.34 124.81 174.47 125 174.61 125.18C174.86 125.53 175.1 125.87 175.34 126.23C176.3 127.65 177.16 129.12 177.94 130.65C178.33 131.42 178.69 132.2 179.03 132.98C178.91 132.71 179.1 133.16 179.13 133.23C179.22 133.45 179.3 133.66 179.39 133.88C179.55 134.28 179.7 134.69 179.84 135.1C180.42 136.75 180.89 138.44 181.24 140.14C181.42 141.01 181.57 141.88 181.7 142.76C181.75 143.12 181.69 142.67 181.74 143.04C181.77 143.28 181.8 143.52 181.82 143.76C181.87 144.21 181.91 144.65 181.94 145.1C182.06 146.83 182.08 148.56 181.98 150.28C181.94 151.08 181.87 151.88 181.78 152.68C181.76 152.86 181.74 153.05 181.71 153.23C181.66 153.63 181.7 153.32 181.71 153.24C181.7 153.33 181.68 153.42 181.67 153.51C181.61 153.9 181.55 154.29 181.48 154.68C181.21 156.22 180.84 157.75 180.39 159.26C180.17 160 179.92 160.74 179.66 161.47C179.53 161.83 179.39 162.19 179.25 162.55C179.18 162.72 179.12 162.88 179.05 163.04C178.96 163.25 179.07 163 179.08 162.97C179.03 163.08 178.99 163.19 178.94 163.3C178.33 164.7 177.64 166.08 176.87 167.4C176.11 168.72 175.27 170 174.37 171.22C174.25 171.38 174.12 171.55 174 171.71C173.86 171.89 174.03 171.68 174.05 171.65C174 171.72 173.94 171.79 173.89 171.86C173.65 172.16 173.42 172.45 173.17 172.74C172.68 173.32 172.18 173.89 171.66 174.45C170.62 175.56 169.53 176.61 168.37 177.6C168.08 177.85 167.79 178.09 167.5 178.33C167.36 178.44 167.23 178.55 167.09 178.66C167.02 178.71 166.95 178.77 166.88 178.82C167.03 178.7 167.01 178.72 166.87 178.83C166.26 179.29 165.65 179.73 165.01 180.16C163.74 181.01 162.43 181.8 161.08 182.5C160.4 182.85 159.71 183.19 159.01 183.51C158.82 183.6 158.63 183.68 158.44 183.76C158.36 183.8 158.28 183.83 158.2 183.87C158.23 183.86 158.48 183.75 158.27 183.84C157.91 183.99 157.55 184.13 157.19 184.27C155.71 184.83 154.19 185.31 152.66 185.69C151.9 185.88 151.13 186.05 150.36 186.2C150 186.27 149.64 186.33 149.28 186.39C149.1 186.42 148.92 186.45 148.74 186.47C148.65 186.48 148.56 186.5 148.47 186.51C148.77 186.47 148.53 186.5 148.37 186.52C145.16 186.92 141.91 186.94 138.69 186.58C138.51 186.56 138.32 186.54 138.14 186.52C138.05 186.51 137.96 186.5 137.87 186.48C137.9 186.48 138.19 186.52 137.95 186.49C137.53 186.43 137.11 186.36 136.68 186.29C135.9 186.15 135.13 185.99 134.37 185.81C132.85 185.45 131.36 185.01 129.89 184.48C129.55 184.36 129.22 184.23 128.89 184.1C128.72 184.03 128.56 183.97 128.39 183.9C128.31 183.87 128.23 183.83 128.14 183.8C128.5 183.95 128.12 183.79 128.05 183.76C127.35 183.45 126.65 183.13 125.96 182.78C124.59 182.09 123.27 181.33 121.99 180.5C121.35 180.08 120.73 179.65 120.11 179.2C119.97 179.1 119.83 178.99 119.69 178.89C119.62 178.84 119.55 178.78 119.48 178.73C119.5 178.75 119.72 178.92 119.54 178.78C119.22 178.53 118.9 178.27 118.59 178.01C117.42 177.04 116.31 176 115.26 174.91C114.73 174.36 114.22 173.8 113.73 173.23C113.5 172.96 113.28 172.7 113.05 172.42C112.92 172.26 112.79 172.1 112.67 171.94C112.62 171.87 112.56 171.8 112.51 171.73C112.32 171.49 112.69 171.97 112.5 171.72C111.58 170.5 110.72 169.25 109.94 167.94C109.15 166.63 108.44 165.27 107.81 163.87C107.74 163.71 107.66 163.55 107.59 163.38C107.56 163.31 107.37 162.87 107.45 163.05C107.52 163.22 107.31 162.7 107.28 162.63C107.2 162.44 107.13 162.24 107.05 162.05C106.77 161.33 106.52 160.59 106.28 159.86C105.81 158.37 105.42 156.85 105.12 155.31C105.05 154.95 104.99 154.59 104.93 154.23C104.89 154.02 104.86 153.81 104.83 153.6C104.82 153.51 104.8 153.42 104.79 153.33C104.74 153.01 104.83 153.64 104.79 153.32C104.69 152.52 104.61 151.73 104.55 150.93C104.43 149.15 104.42 147.37 104.52 145.59C104.64 143.55 104.84 142.03 105.27 140.04C106.86 132.57 110.54 125.8 115.99 120.42C117.35 119.07 118.85 117.79 120.29 116.74C121.16 116.1 121.6 115 121.01 113.99C120.51 113.13 119.14 112.62 118.26 113.27C111.39 118.3 106.12 125.13 103.12 133.1C100.36 140.41 99.7697 148.45 101.21 156.12C102.41 162.51 105.15 168.66 109.09 173.82C113.07 179.03 118.15 183.36 124.03 186.29C130.1 189.32 136.85 190.91 143.64 190.85C150.42 190.79 157.12 189.11 163.13 185.97C168.92 182.95 173.92 178.57 177.8 173.33C181.68 168.1 184.33 161.9 185.43 155.49C186.67 148.24 186.12 140.69 183.64 133.74C181.18 126.86 176.99 120.61 171.47 115.81C170.08 114.6 168.62 113.48 167.1 112.45C166.2 111.84 164.87 112.28 164.35 113.17C163.73 114.16 164.13 115.3 165.03 115.92Z" fill="black"></path>
                  <path d="M144.78 137.59C144.78 133.34 144.78 129.08 144.78 124.83C144.78 118.1 144.78 111.36 144.78 104.63C144.78 103.07 144.78 101.51 144.78 99.95C144.78 98.9 143.86 97.89 142.77 97.94C141.68 97.99 140.76 98.82 140.76 99.95C140.76 104.2 140.76 108.46 140.76 112.71C140.76 119.44 140.76 126.18 140.76 132.91C140.76 134.47 140.76 136.03 140.76 137.59C140.76 138.64 141.68 139.65 142.77 139.6C143.86 139.55 144.78 138.72 144.78 137.59Z" fill="black"></path>
                </svg>
