<svg id="Layer_1" data-name="Layer 1" xmlns="http://www.w3.org/2000/svg" viewBox="0 0 1920 1080"><defs><style>.cls-1,.cls-10,.cls-11,.cls-12,.cls-13,.cls-2,.cls-3,.cls-4,.cls-5,.cls-6,.cls-7,.cls-8,.cls-9{fill:none;stroke:#000;}.cls-1,.cls-11,.cls-13,.cls-2,.cls-3,.cls-4,.cls-5,.cls-6,.cls-7{stroke-miterlimit:10;}.cls-1{stroke-width:5px;}.cls-2,.cls-3{stroke-width:3px;}.cls-12,.cls-13,.cls-3,.cls-6,.cls-7{stroke-linecap:round;}.cls-10,.cls-12,.cls-4,.cls-6,.cls-9{stroke-width:2px;}.cls-10,.cls-8,.cls-9{stroke-linecap:square;}.cls-10,.cls-12,.cls-8,.cls-9{stroke-linejoin:round;}.cls-10,.cls-8{stroke-dasharray:2 8 4 0 0 0;}.cls-11{stroke-width:0.75px;}.cls-13{stroke-width:9px;}</style></defs><path class="cls-1" d="M943.28,635.73H954.2a24.86,24.86,0,0,1,24.86,24.86V739"/><path class="cls-1" d="M980,667.94h5a24.48,24.48,0,0,1,24.47,24.47v49.08"/><path class="cls-1" d="M1010.38,706.41h0a24.15,24.15,0,0,1,24.15,24.15V859.64a15.07,15.07,0,0,1-15.09,15.08l-100.32-.1a10.41,10.41,0,0,1-10.4-10.75l.55-17.53a.77.77,0,0,0-.27-.6l-16.62-14.49a82.52,82.52,0,0,1-24.82-38.57l-23.38-78.39a.77.77,0,0,1,.51-.95l6.61-2.07a22.64,22.64,0,0,1,28.26,14.55l11.36,34.59a12.34,12.34,0,0,0,5,6.53l3.25,2.1a5.37,5.37,0,0,0,8.29-4.51V603.46a16.93,16.93,0,0,1,16.93-16.94H926a17.26,17.26,0,0,1,17.26,17.26V734.59"/><line class="cls-1" x1="909.28" y1="845.98" x2="1034.53" y2="845.98"/><line class="cls-1" x1="908.87" y1="672.17" x2="689.72" y2="672.17"/><line class="cls-1" x1="1104.87" y1="673.17" x2="999.72" y2="673.17"/><line class="cls-1" x1="1153.06" y1="400.79" x2="1153.06" y2="580.98"/><path class="cls-1" d="M585.82,579.27V403.65A52.21,52.21,0,0,1,638,351.43h391.69"/><path class="cls-1" d="M384.93,759.69V627.38a47.14,47.14,0,0,1,47.14-47.14H644.22a47.14,47.14,0,0,1,47.15,47.14V828a47.15,47.15,0,0,1-47.15,47.14H432.07A47,47,0,0,1,412.9,871"/><polygon class="cls-1" points="449.62 796.11 316.15 796.11 316.15 758.65 383.72 758.65 449.62 758.65 449.62 796.11"/><polyline class="cls-1" points="451.44 796.11 472.09 796.11 472.09 833.56 338.62 833.56 338.62 796.11"/><polyline class="cls-1" points="450.62 833.56 450.62 853.12 450.62 871.01 317.15 871.01 317.15 833.56 336.72 833.56"/><path class="cls-1" d="M1103.35,725.55v-119A25.64,25.64,0,0,1,1129,580.92h146.83A20.17,20.17,0,0,1,1296,601.16l-.35,106.11"/><polyline class="cls-1" points="1327.15 867.76 1069.3 868.29 1069.3 703.49 1102.44 703.53"/><line class="cls-1" x1="1069.65" y1="703.77" x2="1253.03" y2="816.25"/><line class="cls-1" x1="1069.65" y1="868.77" x2="1251.98" y2="756.93"/><circle class="cls-1" cx="1328.75" cy="784.53" r="82.4"/><line class="cls-1" x1="692.65" y1="753.77" x2="854.65" y2="753.77"/><line class="cls-1" x1="1037.15" y1="754.77" x2="1069.15" y2="754.77"/><line class="cls-1" x1="385.15" y1="620.77" x2="689.65" y2="621.77"/><polyline class="cls-2" points="415.65 759.26 415.65 656.76 658.65 656.76 658.65 842.76 450.58 842.76"/><line class="cls-3" x1="439.65" y1="705.77" x2="522.15" y2="705.77"/><line class="cls-3" x1="439.65" y1="719.77" x2="522.15" y2="719.77"/><line class="cls-3" x1="439.65" y1="733.77" x2="522.15" y2="733.77"/><line class="cls-3" x1="439.65" y1="747.77" x2="522.15" y2="747.77"/><line class="cls-3" x1="452.15" y1="764.77" x2="522.15" y2="764.77"/><line class="cls-3" x1="452.15" y1="778.77" x2="522.15" y2="778.77"/><line class="cls-3" x1="452.15" y1="792.77" x2="522.15" y2="792.77"/><line class="cls-3" x1="472.15" y1="806.77" x2="522.15" y2="806.77"/><line class="cls-3" x1="541.65" y1="704.77" x2="624.15" y2="704.77"/><line class="cls-3" x1="541.65" y1="718.77" x2="624.15" y2="718.77"/><line class="cls-3" x1="541.65" y1="732.77" x2="624.15" y2="732.77"/><line class="cls-3" x1="541.65" y1="746.77" x2="624.15" y2="746.77"/><line class="cls-3" x1="541.65" y1="764.77" x2="624.15" y2="764.77"/><line class="cls-3" x1="541.65" y1="778.77" x2="624.15" y2="778.77"/><line class="cls-3" x1="541.65" y1="792.77" x2="624.15" y2="792.77"/><line class="cls-3" x1="541.65" y1="806.77" x2="624.15" y2="806.77"/><rect class="cls-4" x="1156.65" y="633.77" width="25" height="84.5"/><rect class="cls-4" x="1226.65" y="633.77" width="25" height="84.5"/><rect class="cls-4" x="1191.65" y="665.27" width="25" height="53"/><path class="cls-1" d="M1056.76,401.05a2.5,2.5,0,0,0-2.31-2.37,26.87,26.87,0,0,1-24.65-26.77v-96.8a29.34,29.34,0,0,1,29.35-29.34h158a29.34,29.34,0,0,1,29.35,29.34v94.31a29.35,29.35,0,0,1-29.35,29.35H1107.86a2.47,2.47,0,0,0-1.72.69L1062.63,441a2.5,2.5,0,0,1-4.22-1.7Z"/><circle class="cls-1" cx="1328.65" cy="784.77" r="47"/><circle class="cls-2" cx="1327.65" cy="784.77" r="15"/><line class="cls-3" x1="1327.65" y1="784.77" x2="1431.15" y2="681.27"/><path class="cls-3" d="M1395.65,715.77l-2.45-24.51a11.05,11.05,0,0,1,3.51-9.24l18-16.59a2.48,2.48,0,0,1,4.15,1.74l.82,24.6"/><path class="cls-3" d="M1396.85,716.9l24.49,2.56a11.13,11.13,0,0,0,9.27-3.46l16.66-17.89a2.48,2.48,0,0,0-1.72-4.17L1421,693"/><circle cx="1328.15" cy="784.27" r="5"/><circle class="cls-4" cx="850.15" cy="506.55" r="97"/><circle class="cls-4" cx="850.15" cy="506.55" r="77.24"/><line class="cls-4" x1="1684.85" y1="673.16" x2="1704.33" y2="673.16"/><line class="cls-4" x1="1691.54" y1="692.03" x2="1768.85" y2="692.03"/><line class="cls-4" x1="1686.07" y1="710.9" x2="1716.5" y2="710.9"/><path class="cls-4" d="M1527.29,680.92H1563a33.21,33.21,0,0,1-1.18-8.77c0-17.09,12.93-30.95,28.88-30.95s28.89,13.86,28.89,30.95a32.81,32.81,0,0,1-1.19,8.77h17a15.74,15.74,0,0,1,15.7,15.69h0a14.22,14.22,0,0,1-14.22,14.22H1522.13a12.38,12.38,0,0,1-12.38-12.37A17.59,17.59,0,0,1,1527.29,680.92Z"/><line class="cls-4" x1="1503.05" y1="707.22" x2="1455.6" y2="707.22"/><line class="cls-4" x1="753.85" y1="267.16" x2="773.33" y2="267.16"/><line class="cls-4" x1="760.54" y1="286.03" x2="837.85" y2="286.03"/><line class="cls-4" x1="755.07" y1="304.9" x2="785.5" y2="304.9"/><path class="cls-4" d="M596.29,274.92H632a33.21,33.21,0,0,1-1.18-8.77c0-17.09,12.93-30.95,28.88-30.95s28.89,13.86,28.89,30.95a32.81,32.81,0,0,1-1.19,8.77h17a15.74,15.74,0,0,1,15.7,15.69h0a14.22,14.22,0,0,1-14.22,14.22H591.13a12.38,12.38,0,0,1-12.38-12.37A17.59,17.59,0,0,1,596.29,274.92Z"/><line class="cls-4" x1="572.05" y1="301.22" x2="524.6" y2="301.22"/><path class="cls-4" d="M314.08,413H369a50.45,50.45,0,0,1-1.82-13.46c0-26.24,19.86-47.52,44.35-47.52s44.35,21.28,44.35,47.52A50.45,50.45,0,0,1,454,413h26a24.17,24.17,0,0,1,24.1,24.1h0A21.84,21.84,0,0,1,482.32,459H306.16a19,19,0,0,1-19-19A27,27,0,0,1,314.08,413Z"/><circle class="cls-5" cx="423.15" cy="603.27" r="7"/><circle class="cls-5" cx="448.65" cy="603.77" r="7"/><circle class="cls-5" cx="474.65" cy="603.77" r="7"/><rect class="cls-5" x="588.65" y="597.77" width="76" height="14" rx="2.86"/><line class="cls-6" x1="627.65" y1="407.77" x2="740.65" y2="407.77"/><line class="cls-6" x1="628.15" y1="430.27" x2="706.15" y2="431.27"/><path class="cls-7" d="M815.85,203.6s50.27-48.41,108.6.62"/><path class="cls-7" d="M828.57,217.3s38.49-37.06,83.16.48"/><path class="cls-7" d="M842.23,232.08s25.85-24.9,55.85.32"/><circle class="cls-5" cx="870.46" cy="252.62" r="14.27"/><circle class="cls-4" cx="486.29" cy="174.94" r="75"/><line class="cls-4" x1="420.29" y1="138.94" x2="551.29" y2="138.94"/><line class="cls-4" x1="411.29" y1="174.94" x2="561.29" y2="174.94"/><line class="cls-4" x1="416.79" y1="203.94" x2="556.29" y2="204.94"/><path class="cls-4" d="M479.29,100.94s-50,66-1,149"/><path class="cls-4" d="M487.29,99.94s54.22,67,5.22,150"/><path d="M1099.81,278.6l36.91,79.15h-8.54l-12.45-26h-34.1l-12.33,26h-8.82l37.39-79.15Zm-1,16.81-13.56,28.66h27.06Z"/><path d="M1149,357.75V278.6h16.41q17.76,0,25.78,2.85a34.42,34.42,0,0,1,18,14q6.49,10,6.49,23.73a41.68,41.68,0,0,1-5.14,20.93,32.86,32.86,0,0,1-13.34,13.34q-8.22,4.32-23,4.31Zm7.59-7.48h9.14q16.41,0,22.76-2a26.26,26.26,0,0,0,14-10.46q5.12-7.54,5.11-18.47,0-11.44-5.54-19.57a27.94,27.94,0,0,0-15.44-11.13q-7.42-2.25-24.49-2.25h-5.59Z"/><circle class="cls-4" cx="1315.08" cy="507.41" r="14.93"/><line class="cls-4" x1="1328.95" y1="507.41" x2="1384.42" y2="507.41"/><line class="cls-4" x1="1464.42" y1="505.28" x2="1636.15" y2="505.28"/><line class="cls-6" x1="1606.28" y1="505.28" x2="1606.28" y2="432.74"/><line class="cls-6" x1="1580.68" y1="505.28" x2="1580.68" y2="448.74"/><line class="cls-6" x1="1556.15" y1="505.28" x2="1556.15" y2="461.54"/><line class="cls-6" x1="1530.55" y1="505.28" x2="1530.55" y2="474.34"/><line class="cls-6" x1="1507.08" y1="504.21" x2="1507.08" y2="480.74"/><line class="cls-6" x1="1482.55" y1="504.21" x2="1482.55" y2="460.48"/><line class="cls-6" x1="1368.42" y1="506.34" x2="1368.42" y2="491.41"/><line class="cls-6" x1="1347.08" y1="507.41" x2="1347.08" y2="494.61"/><polyline class="cls-6" points="1587.08 384.74 1609.48 390.08 1608.42 410.34"/><circle class="cls-6" cx="1315.08" cy="507.41" r="8.53"/><path class="cls-6" d="M1284.15,503.14A28.81,28.81,0,0,1,1337.46,488a1.31,1.31,0,0,0,1.77.43l.39-.22,126.21-65.76a1.34,1.34,0,0,1,1.38.09l45.53,32.08a1.33,1.33,0,0,0,1.5,0l94.18-63.49"/><polygon class="cls-4" points="1465.48 498.88 1398.28 517.01 1385.48 476.48 1453.75 459.41 1465.48 498.88"/><polyline class="cls-6" points="1437.18 467.56 1449.3 464.49 1452.37 474.86"/><polyline class="cls-6" points="1397.6 489.15 1394.21 478.46 1403.18 476.19"/><polyline class="cls-6" points="1414.33 506.17 1403.88 509.01 1400.45 498.16"/><polyline class="cls-6" points="1455.17 484.29 1458.12 494.25 1446.83 497.32"/><circle class="cls-6" cx="1427.08" cy="487.14" r="8.53"/><polygon class="cls-4" points="1446.26 595.4 1381.01 571.17 1394.11 530.73 1459.61 556.46 1446.26 595.4"/><polyline class="cls-6" points="1441.38 553.48 1453.03 558.01 1449.52 568.23"/><polyline class="cls-6" points="1396.62 548.09 1400.07 537.42 1408.69 540.77"/><polyline class="cls-6" points="1400.37 571.66 1390.21 567.91 1393.71 557.07"/><polyline class="cls-6" points="1446.33 577.54 1442.95 587.36 1431.97 583.31"/><circle class="cls-6" cx="1421.8" cy="563.56" r="8.53"/><polygon class="cls-4" points="1329.96 653.16 1326.01 583.67 1368.31 579.47 1370.99 649.78 1329.96 653.16"/><polyline class="cls-6" points="1366.41 631.89 1366.94 644.38 1356.16 645.26"/><polyline class="cls-6" points="1353.41 588.72 1364.57 587.6 1364.95 596.85"/><polyline class="cls-6" points="1333.33 601.6 1332.69 590.79 1344.02 589.66"/><polyline class="cls-6" points="1346.36 646.06 1336 646.91 1335.31 635.22"/><circle class="cls-6" cx="1349.33" cy="617.99" r="8.53"/><path class="cls-2" d="M308.8,576.86v7.21a16.4,16.4,0,0,1-16.4,16.4H240.68"/><path class="cls-2" d="M287.56,601.06v3.33a16.15,16.15,0,0,1-16.15,16.14H239"/><path class="cls-2" d="M262.18,621.12h0a15.94,15.94,0,0,1-15.94,15.94H161.1a10,10,0,0,1-9.95-10l.07-66.17a6.87,6.87,0,0,1,7.09-6.87l11.56.36a.48.48,0,0,0,.4-.17l9.56-11a54.32,54.32,0,0,1,25.44-16.38L257,511.49a.51.51,0,0,1,.63.34l1.36,4.36a14.94,14.94,0,0,1-9.59,18.64l-22.82,7.49a8.1,8.1,0,0,0-4.31,3.32l-1.39,2.14a3.55,3.55,0,0,0,3,5.47H330.09a11.17,11.17,0,0,1,11.17,11.17v1.06a11.38,11.38,0,0,1-11.38,11.38H243.59"/><line class="cls-2" x1="170.11" y1="554.43" x2="170.11" y2="637.06"/><path class="cls-2" d="M317,552.73V525.54a2.63,2.63,0,0,1,2.63-2.63h42.88a2.64,2.64,0,0,1,2.64,2.63v73.23a2.64,2.64,0,0,1-2.64,2.64H319.63a2.64,2.64,0,0,1-2.63-2.64V576.86"/><line class="cls-2" x1="316.67" y1="588.21" x2="365.15" y2="588.21"/><circle class="cls-5" cx="340.08" cy="529.5" r="2.64"/><path class="cls-5" d="M324.91,544.67V538.6a1.84,1.84,0,0,1,1.84-1.84h27.33a1.84,1.84,0,0,1,1.84,1.84v6.07"/><path class="cls-5" d="M324.91,575.68v6.08a1.83,1.83,0,0,0,1.84,1.83h27.33a1.84,1.84,0,0,0,1.84-1.83v-6.08"/><path class="cls-8" d="M483.87,261.69l.91,87.57a34.82,34.82,0,0,0,35.38,34.44l70.42-1.15"/><path class="cls-8" d="M1406.15,233.27c0,122-98.94,221-221,221"/><path class="cls-9" d="M1421.46,185.33h-51a7.88,7.88,0,0,1-7.88-7.88V122.54a7.88,7.88,0,0,1,7.88-7.88h84.78a7.88,7.88,0,0,1,7.88,7.88v54.91a7.88,7.88,0,0,1-7.88,7.88h-10.42l.38,15.68a2,2,0,0,1-3.28,1.57Z"/><path class="cls-9" d="M1410.92,114.91v-6.08a7.88,7.88,0,0,0-7.87-7.89l-84.78-.14a7.87,7.87,0,0,0-7.89,7.87l-.1,54.9a7.89,7.89,0,0,0,7.87,7.9h10.42l-.41,15.69a2,2,0,0,0,3.28,1.58L1352,171.52l10.09,0"/><line class="cls-4" x1="1379.15" y1="146.27" x2="1449.15" y2="146.27"/><line class="cls-4" x1="1380.15" y1="159.27" x2="1451.15" y2="159.27"/><path class="cls-9" d="M1443.46,962.33h-51a7.88,7.88,0,0,1-7.88-7.88V899.54a7.88,7.88,0,0,1,7.88-7.88h84.78a7.88,7.88,0,0,1,7.88,7.88v54.91a7.88,7.88,0,0,1-7.88,7.88h-10.42l.38,15.68a2,2,0,0,1-3.28,1.57Z"/><path class="cls-9" d="M1432.92,891.91v-6.08a7.88,7.88,0,0,0-7.87-7.89l-84.78-.14a7.87,7.87,0,0,0-7.89,7.87l-.1,54.9a7.89,7.89,0,0,0,7.87,7.9h10.42l-.41,15.69a2,2,0,0,0,3.28,1.58L1374,948.52l10.09,0"/><line class="cls-4" x1="1401.15" y1="923.27" x2="1471.15" y2="923.27"/><line class="cls-4" x1="1402.15" y1="936.27" x2="1473.15" y2="936.27"/><path class="cls-10" d="M381.37,736.27H232.94a28.79,28.79,0,0,1-28.79-28.79V639.05"/><path class="cls-11" d="M1403.24,197.35,1393.17,215a.91.91,0,0,0,.79,1.37h5.49a.91.91,0,0,1,.91.82l1.25,11.22a.92.92,0,0,0,1,.81l8.27-.59a.91.91,0,0,0,.85-1l-.63-13.21a.92.92,0,0,1,.92-1h5.56a.91.91,0,0,0,.68-1.53l-13.53-14.76A.92.92,0,0,0,1403.24,197.35Z"/><path class="cls-11" d="M1671.24,495.35,1661.17,513a.91.91,0,0,0,.79,1.37h5.49a.91.91,0,0,1,.91.82l1.25,11.22a.92.92,0,0,0,1,.81l8.27-.59a.91.91,0,0,0,.85-1l-.63-13.21a.92.92,0,0,1,.92-1h5.56a.91.91,0,0,0,.68-1.53l-13.53-14.76A.92.92,0,0,0,1671.24,495.35Z"/><line class="cls-8" x1="1674.97" y1="575.84" x2="1674.65" y2="536.77"/><path class="cls-8" d="M1401.65,873.27h0c0-63.71,64.64-115.23,144-114.77l6.79,0c68.29.4,123.76-44.16,123.21-99"/><rect class="cls-11" x="1626.22" y="598.62" width="86" height="53" rx="8.86"/><path class="cls-11" d="M1639.22,598.77V587.48a9.87,9.87,0,0,1,9.86-9.86h67.29a9.86,9.86,0,0,1,9.85,9.86v30.29a9.85,9.85,0,0,1-9.85,9.85h-4"/><line class="cls-11" x1="1626.22" y1="626.62" x2="1712.22" y2="626.62"/><line class="cls-11" x1="1626.22" y1="638.62" x2="1712.22" y2="638.62"/><line class="cls-12" x1="1329.15" y1="902.77" x2="456.15" y2="902.77"/><line class="cls-12" x1="1329.15" y1="923.77" x2="726.15" y2="923.77"/><line class="cls-12" x1="582.15" y1="478.27" x2="288.15" y2="478.27"/><line class="cls-12" x1="582.15" y1="485.34" x2="379.08" y2="485.34"/><path class="cls-13" d="M802.15,461.33H842a22.29,22.29,0,0,1,22.29,22.29V492A22.29,22.29,0,0,1,842,514.3H815.46a.3.3,0,0,0-.21.52l55,54.45"/><line class="cls-13" x1="802.15" y1="487.22" x2="890.17" y2="487.22"/><line class="cls-13" x1="802.55" y1="461.33" x2="890.17" y2="461.33"/></svg>