<svg width="290" height="290" viewBox="0 0 290 290" fill="none" xmlns="http://www.w3.org/2000/svg">
<path d="M282.32 145C282.04 202.01 245.95 254.51 192.12 274.04C137.86 293.72 75.9598 276.8 39.1098 232.46C2.20984 188.07 -2.35016 123.09 27.5498 73.81C57.2298 24.89 115.96 -1.01001 172.1 10.34C227.72 21.58 271.55 67.25 280.63 123.24C281.79 130.44 282.28 137.72 282.32 145C282.34 149.82 289.84 149.83 289.82 145C289.53 84.71 251.41 29.83 194.73 8.95998C137.86 -11.98 71.8799 6.00998 33.3799 52.74C-5.30014 99.7 -10.5701 167.84 21.0599 219.97C52.4299 271.67 114.12 298.73 173.42 287.02C232.09 275.43 279.06 226.56 288.06 167.4C289.19 159.98 289.77 152.51 289.81 145C289.84 140.17 282.34 140.17 282.32 145Z" fill="black"/>
<path d="M232.38 50.13C231.95 52.58 231.53 55.04 231.1 57.49C230.08 63.36 229.06 69.23 228.04 75.09C226.8 82.2 225.56 89.32 224.33 96.43C223.26 102.56 222.2 108.69 221.13 114.81C220.78 116.82 220.43 118.83 220.08 120.83C219.91 121.79 219.69 122.75 219.58 123.72C219.57 123.76 219.57 123.8 219.56 123.84C220.34 123.4 221.12 122.96 221.9 122.51C220.34 122.22 218.78 121.92 217.22 121.63C213.5 120.93 209.78 120.23 206.06 119.53C201.54 118.68 197.02 117.83 192.5 116.97C188.61 116.24 184.72 115.5 180.83 114.77C178.93 114.41 177.04 114.03 175.13 113.7C175.1 113.7 175.07 113.69 175.05 113.68C173.85 113.45 172.65 114.2 172.65 115.51C172.65 119.6 172.65 123.7 172.65 127.79C172.65 134.3 172.65 140.82 172.65 147.33C172.65 148.81 172.65 150.29 172.65 151.77C173.89 151.6 175.14 151.43 176.38 151.27C175.84 149.97 175.3 148.67 174.77 147.37C173.46 144.2 172.15 141.04 170.84 137.87C169.19 133.88 167.54 129.89 165.88 125.89C164.34 122.16 162.79 118.43 161.25 114.7C160.26 112.31 159.27 109.92 158.28 107.53C158.13 107.17 157.99 106.82 157.84 106.46C157.32 105.22 156.54 105.14 155.47 104.93C152.74 104.39 150.02 103.85 147.29 103.32C143.16 102.5 139.02 101.69 134.89 100.87C130.94 100.09 126.99 99.31 123.03 98.53C120.79 98.09 118.55 97.65 116.3 97.2C116.19 97.18 116.09 97.16 115.98 97.14C115.98 98.36 115.98 99.58 115.98 100.8C117.04 100.37 118.1 99.94 119.16 99.51C122.04 98.34 124.93 97.16 127.81 95.99C132.06 94.26 136.31 92.53 140.56 90.8C145.78 88.67 151 86.55 156.22 84.42C161.9 82.11 167.58 79.8 173.26 77.48C179.01 75.14 184.76 72.8 190.51 70.45C195.87 68.27 201.23 66.08 206.59 63.9C211.11 62.06 215.62 60.22 220.14 58.38C223.4 57.05 226.66 55.73 229.92 54.4C231.46 53.77 233.01 53.15 234.55 52.52C234.62 52.49 234.68 52.47 234.75 52.44C235.7 52.05 236.37 51.18 236.08 50.1C235.83 49.2 234.7 48.38 233.74 48.77C232.68 49.2 231.62 49.63 230.56 50.06C227.68 51.23 224.79 52.41 221.91 53.58C217.66 55.31 213.41 57.04 209.16 58.77C203.94 60.9 198.72 63.02 193.5 65.15C187.82 67.46 182.14 69.77 176.46 72.09C170.71 74.43 164.96 76.77 159.21 79.12C153.85 81.3 148.49 83.49 143.13 85.67C138.61 87.51 134.1 89.35 129.58 91.19C126.32 92.52 123.06 93.84 119.8 95.17C118.26 95.8 116.71 96.42 115.17 97.05C115.1 97.08 115.04 97.1 114.97 97.13C114.21 97.44 113.54 98.06 113.58 98.96C113.62 99.75 114.14 100.63 114.97 100.79C119.55 101.69 124.12 102.6 128.7 103.5C135.97 104.93 143.23 106.37 150.5 107.8C152.17 108.13 153.83 108.46 155.5 108.79C155.06 108.35 154.62 107.91 154.17 107.46C154.78 108.94 155.39 110.42 156.01 111.9C157.49 115.47 158.97 119.05 160.45 122.62C162.23 126.93 164.01 131.23 165.8 135.54C167.35 139.28 168.9 143.02 170.44 146.76C171.19 148.57 171.94 150.38 172.69 152.19C172.7 152.22 172.71 152.24 172.72 152.27C173.09 153.15 173.79 153.77 174.8 153.63C175.72 153.51 176.45 152.72 176.45 151.76C176.45 147.67 176.45 143.57 176.45 139.48C176.45 132.97 176.45 126.45 176.45 119.94C176.45 118.46 176.45 116.98 176.45 115.5C175.65 116.11 174.85 116.72 174.05 117.33C175.61 117.62 177.17 117.92 178.73 118.21C182.45 118.91 186.17 119.61 189.89 120.31C194.41 121.16 198.93 122.01 203.45 122.87C207.34 123.6 211.23 124.34 215.12 125.07C217.02 125.43 218.91 125.81 220.82 126.14C220.85 126.14 220.88 126.15 220.9 126.16C221.83 126.34 223.05 125.91 223.24 124.83C223.67 122.38 224.09 119.92 224.52 117.47C225.54 111.6 226.56 105.73 227.58 99.87C228.82 92.76 230.06 85.64 231.29 78.53C232.36 72.4 233.42 66.27 234.49 60.15C235.01 57.18 235.55 54.21 236.04 51.23C236.05 51.19 236.05 51.15 236.06 51.11C236.23 50.13 235.8 49.02 234.73 48.77C233.79 48.59 232.56 49.08 232.38 50.13Z" fill="black"/>
<path d="M156.94 108.62C157.64 108.12 158.33 107.62 159.03 107.12C160.92 105.76 162.82 104.39 164.71 103.03C167.53 101 170.34 98.97 173.16 96.94C176.58 94.48 180 92.01 183.43 89.55C187.18 86.85 190.92 84.15 194.67 81.45C198.45 78.73 202.23 76 206.02 73.28C209.55 70.74 213.07 68.2 216.6 65.66C219.58 63.51 222.56 61.36 225.54 59.22C227.69 57.67 229.83 56.13 231.98 54.58C233 53.85 234.05 53.15 235.04 52.38C235.08 52.35 235.13 52.32 235.17 52.29C234.4 51.3 233.64 50.3 232.87 49.31C232.34 49.89 231.81 50.47 231.28 51.04C229.83 52.61 228.39 54.19 226.94 55.76C224.8 58.09 222.66 60.41 220.52 62.74C217.91 65.58 215.3 68.42 212.69 71.26C209.83 74.37 206.97 77.48 204.11 80.59C201.22 83.73 198.33 86.87 195.45 90.01C192.76 92.94 190.06 95.87 187.37 98.79C185.09 101.27 182.82 103.74 180.54 106.22C178.9 108 177.27 109.78 175.63 111.56C174.85 112.4 174.06 113.24 173.3 114.09C173.27 114.13 173.23 114.16 173.2 114.2C172.51 114.95 172.45 116.14 173.2 116.89C173.9 117.59 175.19 117.65 175.89 116.89C176.42 116.31 176.95 115.73 177.48 115.16C178.93 113.59 180.37 112.01 181.82 110.44C183.96 108.11 186.1 105.79 188.24 103.46C190.85 100.62 193.46 97.78 196.07 94.94C198.93 91.83 201.79 88.72 204.65 85.61C207.54 82.47 210.43 79.33 213.31 76.19C216 73.26 218.7 70.33 221.39 67.41C223.67 64.93 225.94 62.46 228.22 59.98C229.86 58.2 231.49 56.42 233.13 54.64C233.91 53.8 234.7 52.96 235.46 52.11C235.49 52.07 235.53 52.04 235.56 52C236.2 51.31 236.31 50.26 235.71 49.51C235.17 48.83 234.04 48.46 233.26 49.02C232.56 49.52 231.87 50.02 231.17 50.52C229.28 51.88 227.38 53.25 225.49 54.61C222.67 56.64 219.86 58.67 217.04 60.7C213.62 63.16 210.2 65.63 206.77 68.09C203.02 70.79 199.28 73.49 195.53 76.19C191.75 78.91 187.97 81.64 184.18 84.36C180.65 86.9 177.13 89.44 173.6 91.98C170.62 94.13 167.64 96.28 164.66 98.42C162.51 99.97 160.37 101.51 158.22 103.06C157.2 103.79 156.18 104.52 155.16 105.26C155.12 105.29 155.07 105.32 155.03 105.35C154.2 105.95 153.8 107 154.35 107.95C154.82 108.76 156.11 109.22 156.94 108.62Z" fill="black"/>
<path d="M176.17 152.75C178.9 149.16 181.63 145.58 184.37 141.99C188.69 136.31 193.02 130.64 197.34 124.96C198.34 123.65 199.33 122.34 200.33 121.04C200.95 120.22 200.46 118.91 199.65 118.44C198.67 117.87 197.68 118.3 197.05 119.12C194.32 122.71 191.59 126.29 188.85 129.88C184.53 135.56 180.2 141.23 175.88 146.91C174.88 148.22 173.89 149.53 172.89 150.83C172.27 151.65 172.76 152.96 173.57 153.43C174.54 154 175.54 153.57 176.17 152.75Z" fill="black"/>
<path d="M104.94 233.61C114.12 233.51 122.62 228.66 129.45 222.87C136.18 217.17 141.98 210.3 145.91 202.36C149.74 194.6 151.45 185.87 150.41 177.25C149.41 168.9 145.65 160.98 139.27 155.42C133.28 150.2 125.24 147.28 117.28 147.97C109.7 148.63 102.85 153.1 98.8299 159.51C96.8399 162.67 95.5199 166.28 95.1999 170.01C94.8599 173.99 95.7099 178.11 97.7099 181.58C100.07 185.67 103.87 188.39 108.22 190.08C112.42 191.71 116.97 192.55 121.47 192.71C130.59 193.04 139.73 190.65 147.68 186.21C155.3 181.96 161.84 176 167.2 169.15C168.5 167.49 169.72 165.78 170.88 164.02C171.31 163.36 171.17 162.45 170.51 162C169.87 161.56 168.92 161.71 168.49 162.37C163.92 169.31 158.44 175.36 151.66 180.25C148.43 182.58 144.78 184.66 140.95 186.24C138.91 187.09 137.06 187.71 134.93 188.27C132.84 188.82 130.72 189.24 128.57 189.5C124.4 190.02 120.06 189.94 115.78 189.18C114.72 188.99 113.89 188.8 112.77 188.5C111.74 188.22 110.73 187.91 109.73 187.54C107.7 186.79 106.02 185.98 104.28 184.7C102.74 183.57 101.34 182.03 100.4 180.44C99.3299 178.63 98.6999 176.9 98.3199 174.9C98.2499 174.51 98.1899 174.12 98.1399 173.73C98.1099 173.51 98.0899 173.3 98.0699 173.08C98.0599 172.99 98.0599 172.91 98.0499 172.82C98.0199 172.47 98.0499 173.01 98.0399 172.69C98.0099 171.82 98.0299 170.96 98.1099 170.1C98.1499 169.69 98.1999 169.28 98.2599 168.88C98.2899 168.69 98.3199 168.5 98.3599 168.3C98.3799 168.19 98.3999 168.09 98.4199 167.98C98.4399 167.87 98.4399 167.9 98.4099 168.04C98.4299 167.96 98.4499 167.87 98.4699 167.79C98.6599 166.97 98.8999 166.15 99.1899 165.35C99.4799 164.55 99.8099 163.76 100.19 163C100.18 163.01 100.38 162.63 100.28 162.82C100.19 163.01 100.38 162.62 100.38 162.64C100.47 162.47 100.57 162.29 100.67 162.12C100.9 161.72 101.14 161.32 101.39 160.93C101.86 160.21 102.36 159.51 102.9 158.84C103.16 158.51 103.43 158.19 103.71 157.88C103.54 158.07 103.7 157.89 103.73 157.86C103.82 157.76 103.91 157.67 104 157.57C104.15 157.41 104.31 157.25 104.46 157.1C105.09 156.48 105.75 155.89 106.44 155.34C106.75 155.09 107.07 154.85 107.39 154.62C107.57 154.49 107.75 154.37 107.93 154.24C108.28 154 107.79 154.33 108.01 154.19C108.12 154.12 108.23 154.05 108.34 153.98C109.07 153.52 109.82 153.11 110.6 152.74C111 152.55 111.4 152.37 111.81 152.21C111.99 152.14 112.18 152.06 112.36 152C112.46 151.96 112.57 151.93 112.67 151.89C113.08 151.74 112.4 151.97 112.81 151.84C114.54 151.29 116.32 150.95 118.13 150.81C118.15 150.81 118.62 150.78 118.3 150.8C118.39 150.8 118.49 150.79 118.58 150.79C118.81 150.78 119.05 150.77 119.28 150.77C119.75 150.76 120.22 150.77 120.68 150.79C121.62 150.83 122.55 150.92 123.48 151.07C123.9 151.13 124.31 151.21 124.73 151.29C125.17 151.38 124.57 151.25 124.83 151.31C124.94 151.34 125.06 151.36 125.17 151.39C125.42 151.45 125.67 151.51 125.92 151.58C126.81 151.81 127.69 152.09 128.55 152.41C129.44 152.74 130.31 153.11 131.17 153.52C131.64 153.75 131.64 153.75 132.1 154C132.54 154.24 132.97 154.49 133.4 154.75C136.66 156.73 139.21 159.01 141.51 162.06C142.14 162.9 142.53 163.48 143.05 164.34C143.57 165.21 144.06 166.12 144.5 167.04C145.38 168.88 145.99 170.56 146.5 172.41C147.03 174.36 147.4 176.35 147.62 178.36C147.67 178.85 147.71 179.33 147.75 179.82C147.76 179.92 147.76 180.03 147.77 180.13C147.75 179.86 147.78 180.36 147.78 180.36C147.79 180.62 147.8 180.87 147.81 181.13C147.84 182.16 147.83 183.19 147.78 184.22C147.68 186.23 147.44 188.23 147.06 190.21C147.04 190.34 147.01 190.46 146.98 190.59C146.97 190.64 146.9 190.96 146.95 190.74C146.9 190.99 146.84 191.24 146.78 191.49C146.66 191.99 146.54 192.49 146.4 192.99C146.12 194 145.81 195 145.46 195.98C142.74 203.71 137.9 210.69 132.15 216.46C129.14 219.48 125.87 222.3 122.32 224.66C120.69 225.74 118.71 226.87 116.83 227.75C114.83 228.7 112.97 229.4 110.89 229.93C109.93 230.17 108.97 230.37 107.99 230.51C107.49 230.58 107 230.64 106.5 230.68C106.37 230.69 106.24 230.7 106.11 230.71C105.81 230.73 106.45 230.7 105.95 230.72C105.69 230.73 105.43 230.74 105.17 230.74C104.41 230.75 103.64 231.25 103.61 232.08C103.58 232.78 104.13 233.62 104.94 233.61Z" fill="black"/>
<path d="M72.5098 242.3C84.9583 242.3 95.0497 232.209 95.0497 219.76C95.0497 207.312 84.9583 197.22 72.5098 197.22C60.0613 197.22 49.9697 207.312 49.9697 219.76C49.9697 232.209 60.0613 242.3 72.5098 242.3Z" fill="#00FF00"/>
<path d="M94.9601 219.75C94.9601 220.36 94.94 220.96 94.89 221.57C94.87 221.86 94.84 222.16 94.8 222.45C94.79 222.52 94.7801 222.6 94.7701 222.67C94.7701 222.67 94.76 222.78 94.76 222.71C94.77 222.64 94.75 222.77 94.75 222.78C94.73 222.92 94.71 223.07 94.69 223.21C94.5 224.37 94.23 225.51 93.87 226.63C93.69 227.17 93.5001 227.7 93.2801 228.23C93.2701 228.26 93.2 228.43 93.24 228.33C93.21 228.4 93.18 228.46 93.16 228.52C93.1 228.66 93.04 228.8 92.97 228.93C92.85 229.19 92.73 229.44 92.6 229.69C92.09 230.7 91.5 231.67 90.85 232.59C90.68 232.83 90.51 233.06 90.33 233.29C90.39 233.21 90.3001 233.33 90.2801 233.35C90.2401 233.4 90.1901 233.46 90.1501 233.51C90.0601 233.63 89.96 233.74 89.87 233.86C89.51 234.29 89.14 234.7 88.75 235.11C88.36 235.52 87.9501 235.91 87.5201 236.29C87.3101 236.48 87.1 236.66 86.89 236.84C86.78 236.93 86.67 237.02 86.57 237.1C86.52 237.14 86.46 237.19 86.41 237.23C86.39 237.25 86.3601 237.27 86.3401 237.29C86.2501 237.36 86.45 237.2 86.3 237.32C85.4 238 84.46 238.62 83.47 239.17C82.97 239.45 82.46 239.7 81.93 239.94C81.81 239.99 81.69 240.05 81.57 240.1C81.51 240.13 81.44 240.16 81.38 240.18C81.47 240.14 81.29 240.22 81.25 240.23C80.99 240.34 80.7201 240.44 80.4601 240.54C79.3701 240.94 78.26 241.25 77.12 241.48C75.93 241.72 74.92 241.84 73.67 241.88C72.47 241.92 71.27 241.88 70.08 241.73C70.01 241.72 69.93 241.71 69.86 241.7C69.79 241.69 69.86 241.7 69.87 241.7C69.83 241.69 69.79 241.69 69.75 241.68C69.61 241.66 69.46 241.64 69.32 241.61C69.03 241.56 68.7501 241.51 68.4601 241.45C67.8901 241.33 67.32 241.2 66.75 241.04C66.19 240.88 65.6401 240.7 65.0901 240.5C64.8201 240.4 64.56 240.3 64.3 240.19C64.26 240.17 64.23 240.16 64.19 240.14C64.2 240.14 64.27 240.17 64.2 240.14C64.13 240.11 64.07 240.08 64.01 240.06C63.88 240 63.75 239.95 63.62 239.89C62.58 239.41 61.58 238.86 60.62 238.23C60.15 237.92 59.7 237.6 59.25 237.26C59.33 237.32 59.19 237.21 59.17 237.19C59.12 237.15 59.06 237.1 59.01 237.06C58.89 236.97 58.78 236.87 58.66 236.78C58.45 236.6 58.2401 236.42 58.0301 236.23C57.1901 235.48 56.41 234.66 55.69 233.8C55.6 233.69 55.51 233.58 55.43 233.48C55.39 233.43 55.34 233.37 55.3 233.32C55.28 233.3 55.26 233.27 55.24 233.25C55.28 233.3 55.25 233.27 55.23 233.24C55.06 233.01 54.88 232.78 54.72 232.54C54.39 232.07 54.08 231.6 53.79 231.11C53.5 230.63 53.23 230.14 52.98 229.63C52.85 229.38 52.73 229.12 52.61 228.87C52.55 228.74 52.49 228.61 52.44 228.48C52.43 228.45 52.36 228.3 52.38 228.33C52.4 228.39 52.37 228.3 52.36 228.29C52.34 228.24 52.32 228.2 52.3 228.15C51.87 227.08 51.51 225.98 51.25 224.86C51.11 224.29 51 223.71 50.91 223.12C50.89 222.99 50.87 222.85 50.85 222.72C50.85 222.7 50.83 222.6 50.85 222.7C50.85 222.67 50.8401 222.64 50.8401 222.61C50.8301 222.53 50.82 222.44 50.81 222.36C50.78 222.07 50.75 221.77 50.73 221.48C50.64 220.28 50.64 219.07 50.74 217.87C50.76 217.57 50.79 217.26 50.83 216.96C50.84 216.89 50.85 216.81 50.86 216.74C50.85 216.84 50.87 216.69 50.87 216.66C50.89 216.51 50.92 216.35 50.94 216.2C51.03 215.62 51.15 215.04 51.29 214.47C51.56 213.35 51.93 212.26 52.36 211.19C52.37 211.16 52.38 211.13 52.39 211.11C52.35 211.2 52.3901 211.11 52.4001 211.09C52.4201 211.03 52.45 210.98 52.47 210.92C52.53 210.78 52.59 210.64 52.66 210.51C52.78 210.25 52.91 209.98 53.04 209.72C53.29 209.22 53.57 208.73 53.86 208.25C54.46 207.26 55.1001 206.37 55.7801 205.56C56.5001 204.7 57.29 203.89 58.13 203.14C58.34 202.95 58.55 202.77 58.77 202.6C58.88 202.51 58.99 202.42 59.1 202.34C59.15 202.3 59.19 202.27 59.24 202.23C59.25 202.22 59.35 202.14 59.29 202.19C59.24 202.23 59.3401 202.15 59.3401 202.15C59.7901 201.81 60.26 201.48 60.73 201.17C61.68 200.55 62.6801 200.01 63.7101 199.54C63.8401 199.48 63.97 199.42 64.1 199.37C64.13 199.36 64.3 199.29 64.2 199.33C64.27 199.3 64.35 199.27 64.42 199.24C64.68 199.13 64.9501 199.03 65.2101 198.93C65.7501 198.74 66.2901 198.56 66.8401 198.41C67.4001 198.25 67.98 198.12 68.55 198C68.84 197.94 69.12 197.89 69.41 197.85C69.55 197.83 69.7001 197.81 69.8401 197.79C69.9101 197.78 69.84 197.79 69.83 197.79C69.87 197.78 69.91 197.78 69.95 197.77C70.03 197.76 70.12 197.75 70.2 197.74C71.39 197.6 72.6 197.56 73.8 197.61C74.4 197.64 75 197.69 75.6 197.76C75.66 197.77 75.72 197.78 75.79 197.78C75.68 197.77 75.8701 197.79 75.9001 197.8C76.0501 197.82 76.21 197.85 76.36 197.87C76.65 197.92 76.93 197.97 77.22 198.03C78.36 198.26 79.49 198.58 80.58 198.99C81.17 199.21 81.51 199.35 82.05 199.6C82.57 199.84 83.08 200.1 83.58 200.38C84.07 200.65 84.5501 200.94 85.0201 201.25C85.2601 201.41 85.5 201.57 85.74 201.74C85.85 201.82 85.95 201.89 86.05 201.97C86.11 202.01 86.16 202.05 86.22 202.1C86.25 202.12 86.41 202.24 86.33 202.18C87.22 202.87 88.06 203.63 88.83 204.44C89.22 204.85 89.6001 205.27 89.9601 205.71C90.0501 205.82 90.14 205.93 90.22 206.04C90.26 206.09 90.29 206.13 90.33 206.18C90.34 206.19 90.4001 206.27 90.3401 206.19C90.3601 206.22 90.39 206.25 90.41 206.29C90.58 206.51 90.7401 206.74 90.9001 206.97C91.5601 207.9 92.1401 208.89 92.6501 209.91C92.7801 210.16 92.9 210.42 93.01 210.67C93.07 210.8 93.13 210.93 93.18 211.06C93.19 211.09 93.2501 211.22 93.2101 211.13C93.2401 211.2 93.27 211.28 93.3 211.35C93.52 211.89 93.71 212.43 93.89 212.98C94.24 214.09 94.51 215.22 94.69 216.37C94.71 216.51 94.73 216.66 94.75 216.8C94.74 216.7 94.76 216.88 94.76 216.91C94.77 216.98 94.78 217.06 94.79 217.13C94.82 217.41 94.85 217.7 94.87 217.98C94.94 218.58 94.9601 219.17 94.9601 219.75C94.9601 220.09 95.2501 220.38 95.5901 220.38C95.9301 220.38 96.22 220.09 96.22 219.75C96.22 217.31 95.8401 214.86 95.0901 212.54C94.3601 210.3 93.3 208.16 91.93 206.24C90.55 204.3 88.89 202.58 86.99 201.13C85.12 199.7 83.03 198.56 80.82 197.75C78.54 196.91 76.12 196.45 73.7 196.36C71.25 196.26 68.77 196.56 66.41 197.23C64.14 197.87 61.95 198.87 59.98 200.17C58.02 201.46 56.25 203.03 54.76 204.84C53.24 206.69 52.01 208.74 51.11 210.95C50.19 213.19 49.6501 215.57 49.4601 217.98C49.2701 220.44 49.47 222.93 50.06 225.33C50.62 227.63 51.54 229.86 52.77 231.88C53.98 233.88 55.5 235.71 57.26 237.27C59.01 238.83 60.99 240.13 63.13 241.09C65.36 242.1 67.7201 242.75 70.1501 243.03C72.6101 243.32 75.1101 243.2 77.5301 242.71C79.8601 242.24 82.12 241.39 84.2 240.24C86.25 239.1 88.13 237.64 89.75 235.95C91.36 234.26 92.7301 232.32 93.7801 230.23C94.8501 228.09 95.59 225.79 95.95 223.42C96.13 222.21 96.23 221 96.24 219.78C96.24 219.44 95.95 219.15 95.61 219.15C95.25 219.12 94.9601 219.41 94.9601 219.75Z" fill="black"/>
<path d="M79.7198 209.74C79.8298 209.82 79.9398 209.89 80.0498 209.97C80.0998 210.01 80.1498 210.04 80.1998 210.08C80.2198 210.1 80.3698 210.21 80.2898 210.15C80.4998 210.31 80.7098 210.48 80.9098 210.66C81.3098 211.01 81.6898 211.39 82.0398 211.79C82.2198 211.99 82.3898 212.19 82.5498 212.41C82.4898 212.34 82.5898 212.46 82.5998 212.48C82.6398 212.54 82.6898 212.6 82.7298 212.65C82.8098 212.76 82.8798 212.87 82.9598 212.98C83.2598 213.42 83.5298 213.89 83.7798 214.37C83.8998 214.61 84.0198 214.86 84.1198 215.1C84.0798 215.01 84.1398 215.16 84.1498 215.18C84.1798 215.25 84.1998 215.32 84.2298 215.38C84.2798 215.51 84.3298 215.63 84.3698 215.76C84.5498 216.28 84.6998 216.81 84.8098 217.34C84.8698 217.61 84.9098 217.89 84.9498 218.16C84.9698 218.27 84.9498 218.13 84.9598 218.25C84.9698 218.33 84.9798 218.4 84.9898 218.48C84.9998 218.62 85.0198 218.76 85.0298 218.9C85.0698 219.44 85.0698 219.99 85.0398 220.53C85.0298 220.78 85.0098 221.03 84.9798 221.28C84.9698 221.34 84.9698 221.39 84.9598 221.45C84.9398 221.58 84.9598 221.48 84.9598 221.45C84.9598 221.48 84.9498 221.51 84.9498 221.54C84.9298 221.66 84.9098 221.79 84.8898 221.91C84.7998 222.4 84.6898 222.88 84.5498 223.35C84.4798 223.58 84.3998 223.81 84.3198 224.04C84.2798 224.15 84.2398 224.27 84.1898 224.38C84.1698 224.43 84.1498 224.48 84.1298 224.54C84.0998 224.61 84.1398 224.53 84.1398 224.52C84.1298 224.55 84.1098 224.59 84.0998 224.62C83.9098 225.06 83.6898 225.49 83.4498 225.91C83.2098 226.32 82.9498 226.73 82.6598 227.11C82.6198 227.16 82.5798 227.21 82.5398 227.26C82.4998 227.32 82.5498 227.25 82.5498 227.24C82.5298 227.26 82.5198 227.28 82.4998 227.3C82.4298 227.39 82.3498 227.49 82.2698 227.58C82.1198 227.76 81.9598 227.94 81.7998 228.12C81.4698 228.47 81.1298 228.8 80.7698 229.11C80.6798 229.19 80.5898 229.26 80.4998 229.34C80.4598 229.37 80.4098 229.41 80.3698 229.44C80.3498 229.46 80.3298 229.47 80.3098 229.49C80.3598 229.45 80.3498 229.46 80.3098 229.49C80.1198 229.63 79.9298 229.77 79.7298 229.91C79.3298 230.18 78.9198 230.42 78.4898 230.65C78.2798 230.76 78.0598 230.87 77.8398 230.97C77.7798 231 77.7198 231.02 77.6598 231.05C77.6298 231.06 77.6098 231.07 77.5798 231.08C77.5898 231.08 77.6698 231.04 77.5998 231.07C77.4898 231.12 77.3798 231.16 77.2598 231.2C76.7898 231.38 76.3198 231.53 75.8398 231.65C75.5998 231.71 75.3598 231.76 75.1198 231.81C75.0098 231.83 74.8898 231.85 74.7798 231.87C74.7198 231.88 74.6698 231.89 74.6098 231.9C74.5798 231.9 74.5498 231.91 74.5198 231.91C74.6098 231.9 74.5398 231.91 74.4898 231.91C73.4798 232.04 72.4598 232.04 71.4498 231.93C71.3898 231.92 71.3298 231.92 71.2798 231.91C71.2498 231.91 71.2198 231.9 71.1898 231.9C71.1998 231.9 71.2898 231.91 71.2098 231.9C71.0798 231.88 70.9398 231.86 70.8098 231.84C70.5698 231.8 70.3198 231.75 70.0798 231.69C69.5998 231.58 69.1298 231.44 68.6698 231.27C68.5598 231.23 68.4598 231.19 68.3598 231.15C68.3098 231.13 68.2598 231.11 68.1998 231.09C68.1698 231.08 68.1498 231.07 68.1198 231.06C68.2298 231.11 68.1098 231.06 68.0898 231.05C67.8698 230.95 67.6498 230.85 67.4298 230.74C66.9998 230.52 66.5798 230.29 66.1798 230.02C65.9798 229.89 65.7798 229.75 65.5898 229.61C65.5498 229.58 65.4998 229.54 65.4598 229.51C65.4398 229.49 65.4198 229.48 65.3898 229.46C65.3998 229.47 65.4698 229.52 65.4098 229.47C65.3098 229.39 65.2098 229.31 65.1098 229.23C64.7398 228.93 64.3898 228.6 64.0598 228.26C63.8898 228.09 63.7298 227.91 63.5798 227.73C63.5098 227.65 63.4398 227.56 63.3698 227.48C63.3298 227.43 63.2898 227.38 63.2498 227.33C63.2298 227.31 63.2198 227.29 63.1998 227.27C63.1398 227.19 63.2598 227.34 63.1998 227.27C62.9098 226.89 62.6398 226.49 62.3998 226.08C62.1498 225.67 61.9298 225.24 61.7298 224.8C61.7098 224.75 61.6798 224.7 61.6598 224.65C61.6498 224.63 61.5898 224.49 61.6098 224.55C61.6298 224.6 61.5698 224.44 61.5598 224.42C61.5398 224.36 61.5098 224.3 61.4898 224.24C61.3998 224.01 61.3198 223.78 61.2498 223.55C61.0998 223.08 60.9798 222.6 60.8898 222.12C60.8698 222.01 60.8498 221.89 60.8298 221.78C60.8198 221.71 60.8098 221.65 60.7998 221.58C60.7998 221.55 60.7898 221.52 60.7898 221.49C60.7798 221.39 60.7998 221.59 60.7898 221.49C60.7598 221.24 60.7298 220.99 60.7098 220.74C60.6698 220.18 60.6698 219.62 60.6998 219.06C60.7398 218.42 60.7998 217.94 60.9298 217.32C61.4298 214.97 62.5798 212.85 64.2998 211.16C64.7298 210.74 65.1998 210.33 65.6498 210C65.9198 209.8 66.0598 209.45 65.8798 209.14C65.7198 208.87 65.2898 208.71 65.0198 208.91C62.8598 210.49 61.2098 212.63 60.2598 215.14C59.3898 217.44 59.2098 219.96 59.6598 222.37C60.0398 224.38 60.8998 226.31 62.1398 227.93C63.3898 229.57 64.9898 230.93 66.8298 231.85C68.7398 232.8 70.8598 233.3 72.9898 233.28C75.1198 233.26 77.2198 232.73 79.1098 231.75C80.9298 230.8 82.4998 229.42 83.7198 227.78C84.9398 226.14 85.7698 224.19 86.1198 222.18C86.5098 219.9 86.3398 217.53 85.5598 215.35C84.7898 213.19 83.4698 211.23 81.7398 209.72C81.2998 209.34 80.8398 208.99 80.3698 208.66C80.0898 208.47 79.6698 208.61 79.5098 208.89C79.3198 209.19 79.4398 209.55 79.7198 209.74Z" fill="black"/>
<path d="M73.3601 216.55C73.3601 215.21 73.3601 213.88 73.3601 212.54C73.3601 210.43 73.3601 208.31 73.3601 206.2C73.3601 205.71 73.3601 205.22 73.3601 204.73C73.3601 204.4 73.0701 204.08 72.7301 204.1C72.3901 204.12 72.1001 204.38 72.1001 204.73C72.1001 206.07 72.1001 207.4 72.1001 208.74C72.1001 210.85 72.1001 212.97 72.1001 215.08C72.1001 215.57 72.1001 216.06 72.1001 216.55C72.1001 216.88 72.3901 217.2 72.7301 217.18C73.0801 217.16 73.3601 216.9 73.3601 216.55Z" fill="black"/>
</svg>
