<svg id="Layer_1" data-name="Layer 1" xmlns="http://www.w3.org/2000/svg" xmlns:xlink="http://www.w3.org/1999/xlink" viewBox="0 0 1920 1080"><defs><style>.cls-1,.cls-2,.cls-3,.cls-4,.cls-5,.cls-6,.cls-7{fill:none;}.cls-2,.cls-3,.cls-4,.cls-5,.cls-6,.cls-7{stroke:#000;stroke-miterlimit:10;}.cls-2,.cls-5{stroke-width:3px;}.cls-3{stroke-dasharray:2 8 4 0 0 0;}.cls-4{stroke-width:2px;}.cls-5{stroke-linecap:round;}.cls-7{stroke-width:0.75px;}.cls-8{clip-path:url(#clip-path);}</style><clipPath id="clip-path"><rect class="cls-1" x="1188.18" y="264.83" width="33.35" height="43.79"/></clipPath></defs><path class="cls-2" d="M1170.24,322.42s28.28,2.86,28.42,33.9"/><path class="cls-2" d="M1169.33,330s21.66,2.2,21.76,26"/><path class="cls-2" d="M1168.34,338.11s14.54,1.48,14.61,17.44"/><circle class="cls-2" cx="1169.39" cy="352.3" r="5.81"/><circle class="cls-2" cx="1007.9" cy="544.94" r="166.5"/><path class="cls-3" d="M1318.4,491.44c2.21,14.05,2,19.28,2,38"/><path class="cls-3" d="M1217.57,312.54A313.58,313.58,0,0,1,1298.73,429"/><path class="cls-3" d="M926.87,242.53a313.89,313.89,0,0,1,247.86,37.53"/><path class="cls-3" d="M765.4,348.44c19.78-26.42,35.43-40.53,62.44-59.56"/><path class="cls-3" d="M695.1,556.36q-.2-5.68-.2-11.42a312.51,312.51,0,0,1,17.19-102.56"/><path class="cls-3" d="M745.48,715.6a311.35,311.35,0,0,1-39.84-89.07"/><path class="cls-3" d="M907.65,841.54a312.55,312.55,0,0,1-96.72-53.34"/><path class="cls-3" d="M1042.86,856a317.79,317.79,0,0,1-35,1.93q-15.25,0-30.16-1.44"/><path class="cls-3" d="M1261.56,728.35a314.49,314.49,0,0,1-111.94,95.74"/><path class="cls-3" d="M1313.4,613.44c-3.65,18.37-7.39,28.93-14.11,46"/><rect class="cls-2" x="744.24" y="734.24" width="88.24" height="57.08" rx="12.99" transform="translate(-307.07 704.71) rotate(-41.02)"/><rect class="cls-2" x="744.94" y="682.71" width="16" height="87.56" rx="7.27" transform="translate(544.16 -298.75) rotate(34.51)"/><path class="cls-2" d="M775.74,762.36,787.66,776a3.89,3.89,0,0,0,6.65-1.4l4.77-15.33a4.09,4.09,0,0,0-4.47-5.26L778,756.41A3.61,3.61,0,0,0,775.74,762.36Z"/><path class="cls-2" d="M723.62,563.59h39.94a8.33,8.33,0,0,1,8.34,8.34v2.44a7,7,0,0,1-7,7H751.09"/><rect class="cls-2" x="657.9" y="555.54" width="35.21" height="74.44" rx="17.6"/><path class="cls-2" d="M693.78,564.93,714.11,553a15.07,15.07,0,0,0,7.45-12.48l.47-13.63a4.88,4.88,0,0,1,6.87-4.29l6.26,2.79a14.69,14.69,0,0,1,8.71,13.72l-.47,24.45"/><path class="cls-2" d="M688.79,626.64h62.68a13.73,13.73,0,0,0,13.72-13.73V582"/><line class="cls-4" x1="645.33" y1="572.44" x2="620.18" y2="572.44"/><line class="cls-4" x1="636.68" y1="596.79" x2="536.9" y2="596.79"/><line class="cls-4" x1="643.76" y1="621.15" x2="604.47" y2="621.15"/><line class="cls-4" x1="1302.33" y1="823.44" x2="1277.18" y2="823.44"/><line class="cls-4" x1="1293.68" y1="847.79" x2="1193.9" y2="847.79"/><line class="cls-4" x1="1300.76" y1="872.15" x2="1261.47" y2="872.15"/><line class="cls-4" x1="1397.9" y1="447.44" x2="1423.04" y2="447.44"/><line class="cls-4" x1="1406.54" y1="471.79" x2="1506.33" y2="471.79"/><line class="cls-4" x1="1393.47" y1="496.15" x2="1432.76" y2="496.15"/><path class="cls-2" d="M898.12,270.47a9.88,9.88,0,1,0-19.34-3.1.28.28,0,0,1-.28.27h0a.27.27,0,0,1-.28-.27,9.88,9.88,0,1,0-19.46,2.69,8.26,8.26,0,0,0,2.18,3.77L878,291,896,273.78A7.59,7.59,0,0,0,898.12,270.47Z"/><path class="cls-2" d="M873.87,308.26h41.58a12.48,12.48,0,0,0,12.45-12.45V249.9a12.48,12.48,0,0,0-12.45-12.45h-76.1A12.48,12.48,0,0,0,826.9,249.9v45.91a12.48,12.48,0,0,0,12.45,12.45h6.32a3.47,3.47,0,0,1,3.48,3.44l.2,16.45a1.62,1.62,0,0,0,2.85,1.05l16-18.35A7.51,7.51,0,0,1,873.87,308.26Z"/><path d="M973,871.7h6q-7.63,9.52-14.14,13.35a41.22,41.22,0,0,1-21,5.36,46.39,46.39,0,0,1-23-5.91,42.69,42.69,0,0,1-16.45-16.12,43.87,43.87,0,0,1-5.9-22.31,45.61,45.61,0,0,1,6-22.83,42.56,42.56,0,0,1,16.22-16.41A44.73,44.73,0,0,1,943.08,801q17.22,0,29.09,11T984,837.74a32.55,32.55,0,0,1-18.31,30.42q-6.45,3.32-11,3.31a7.48,7.48,0,0,1-5.25-1.76q-1.49-1.32-1.54-4.57a15,15,0,0,1-5.33,4.11,15.91,15.91,0,0,1-7,1.65A17.83,17.83,0,0,1,922,865.22q-5.36-5.67-5.36-15a29.27,29.27,0,0,1,6.5-18.45q6.5-8.33,17.89-8.33a17.16,17.16,0,0,1,8.4,1.88,19,19,0,0,1,6.41,6.55l1.51-7.86h6.17l-6.62,37.3a20,20,0,0,0-.28,2.34,2.71,2.71,0,0,0,.8,2.09,2.83,2.83,0,0,0,2.05.76q3.36,0,8.75-3.91a26.65,26.65,0,0,0,8.39-10,30.72,30.72,0,0,0,3-13.62,30.19,30.19,0,0,0-11.23-24Q957.85,806,942.8,806a40.76,40.76,0,0,0-20.28,5.11,37.39,37.39,0,0,0-14.37,14.38,40.83,40.83,0,0,0,0,40.18,38,38,0,0,0,14.69,14.47,41.58,41.58,0,0,0,20.67,5.25,36.78,36.78,0,0,0,15-3Q965.26,879.47,973,871.7Zm-34.57-7.24a11.93,11.93,0,0,0,7.07-2.37,15.92,15.92,0,0,0,5.24-7.12,33.19,33.19,0,0,0,2.51-12.53,13.47,13.47,0,0,0-3.22-9.35,10.71,10.71,0,0,0-8.35-3.59,15.34,15.34,0,0,0-11.83,5.63,20.38,20.38,0,0,0-5,14q0,7,3.79,11.17A12.66,12.66,0,0,0,938.4,864.46Z"/><path class="cls-3" d="M826.9,705.94s77-323,461-263"/><path class="cls-3" d="M929.9,314.94s238.73,116.82,154,476"/><path class="cls-3" d="M1289.42,504s-169.17,221.8-517.52,100"/><path class="cls-3" d="M1248.4,664.44s-94.49-189.2-459.5-243.5"/><line class="cls-5" x1="715.9" y1="514.94" x2="707.4" y2="492.44"/><line class="cls-5" x1="733.73" y1="513.99" x2="743.9" y2="490.94"/><line class="cls-5" x1="725.71" y1="513.17" x2="725.4" y2="498.44"/><circle class="cls-6" cx="764.74" cy="653.7" r="5.79"/><path class="cls-6" d="M775.63,649.56l-.1-.24a1.46,1.46,0,0,1,.22-1.45l1.09-1.38a1.46,1.46,0,0,0-.09-1.93l-2.66-2.76a1.48,1.48,0,0,0-2.11,0l-1.07,1.1a1.46,1.46,0,0,1-1.61.33h0a1.45,1.45,0,0,1-.9-1.19l-.22-1.81a1.47,1.47,0,0,0-1.48-1.3l-3.62.05a1.45,1.45,0,0,0-1.44,1.32l-.17,1.67a1.48,1.48,0,0,1-.88,1.2l-.19.08a1.45,1.45,0,0,1-1.51-.21l-1.34-1.1a1.47,1.47,0,0,0-2,.09L753,644.54a1.48,1.48,0,0,0-.11,2l1.11,1.35a1.47,1.47,0,0,1,.23,1.47l-.06.16a1.45,1.45,0,0,1-1.22.92l-1.71.17a1.48,1.48,0,0,0-1.33,1.45l0,3.51a1.47,1.47,0,0,0,1.25,1.47l2,.3a1.47,1.47,0,0,1,1.15.92l.07.18a1.46,1.46,0,0,1-.26,1.5L753,661.16a1.48,1.48,0,0,0,.1,2l2.64,2.51a1.47,1.47,0,0,0,2,0l1.26-1a1.46,1.46,0,0,1,1.55-.22l.14.06a1.49,1.49,0,0,1,.85,1.15l.26,2a1.48,1.48,0,0,0,1.48,1.27l3.32,0a1.47,1.47,0,0,0,1.43-1.25l.31-1.94a1.45,1.45,0,0,1,.9-1.13l.19-.08a1.45,1.45,0,0,1,1.42.17l1.49,1.08a1.47,1.47,0,0,0,1.86-.12l2.51-2.33a1.45,1.45,0,0,0,.16-2l-1.09-1.42a1.46,1.46,0,0,1-.22-1.42l.1-.25a1.46,1.46,0,0,1,1.23-1l1.69-.17a1.46,1.46,0,0,0,1.32-1.44l0-3.38a1.48,1.48,0,0,0-1.22-1.47l-1.94-.34A1.45,1.45,0,0,1,775.63,649.56Z"/><circle class="cls-6" cx="1227.79" cy="602.78" r="3.86"/><path class="cls-6" d="M1235.05,600l-.06-.16a1,1,0,0,1,.14-1l.73-.91a1,1,0,0,0-.06-1.3l-1.78-1.83a1,1,0,0,0-1.4,0l-.71.73a1,1,0,0,1-1.08.22h0a1,1,0,0,1-.6-.79l-.14-1.21a1,1,0,0,0-1-.87l-2.41,0a1,1,0,0,0-1,.88l-.11,1.12a1,1,0,0,1-.58.8l-.13,0a1,1,0,0,1-1-.14l-.89-.73a1,1,0,0,0-1.31.06l-1.7,1.67a1,1,0,0,0-.07,1.33l.73.89a1,1,0,0,1,.16,1l0,.11a1,1,0,0,1-.82.61l-1.14.12a1,1,0,0,0-.88,1l0,2.34a1,1,0,0,0,.83,1l1.31.2a1,1,0,0,1,.76.62l0,.12a1,1,0,0,1-.17,1l-.72.82a1,1,0,0,0,.07,1.36l1.76,1.67a1,1,0,0,0,1.3,0l.84-.71a1,1,0,0,1,1-.14l.09,0a1,1,0,0,1,.56.76l.18,1.31a1,1,0,0,0,1,.85l2.21,0a1,1,0,0,0,1-.82l.2-1.3a1,1,0,0,1,.6-.76l.13,0a1,1,0,0,1,.94.11l1,.72a1,1,0,0,0,1.24-.07l1.67-1.56a1,1,0,0,0,.11-1.31l-.73-1a1,1,0,0,1-.15-.94l.07-.17a1,1,0,0,1,.82-.63l1.13-.12a1,1,0,0,0,.88-1l0-2.25a1,1,0,0,0-.81-1l-1.3-.23A1,1,0,0,1,1235.05,600Z"/><circle class="cls-6" cx="1198.79" cy="496.78" r="3.86"/><path class="cls-6" d="M1206.05,494l-.06-.16a1,1,0,0,1,.14-1l.73-.91a1,1,0,0,0-.06-1.3l-1.78-1.83a1,1,0,0,0-1.4,0l-.71.73a1,1,0,0,1-1.08.22h0a1,1,0,0,1-.6-.79l-.14-1.21a1,1,0,0,0-1-.87l-2.41,0a1,1,0,0,0-1,.88l-.11,1.12a1,1,0,0,1-.58.8l-.13.05a1,1,0,0,1-1-.14l-.89-.73a1,1,0,0,0-1.31.06l-1.7,1.67a1,1,0,0,0-.07,1.33l.73.89a1,1,0,0,1,.16,1l0,.11a1,1,0,0,1-.82.61l-1.14.12a1,1,0,0,0-.88,1l0,2.34a1,1,0,0,0,.83,1l1.31.2a1,1,0,0,1,.76.62l0,.12a1,1,0,0,1-.17,1l-.72.82a1,1,0,0,0,.07,1.36l1.76,1.67a1,1,0,0,0,1.3,0l.84-.71a1,1,0,0,1,1-.14l.09,0a1,1,0,0,1,.56.76l.18,1.31a1,1,0,0,0,1,.85l2.21,0a1,1,0,0,0,1-.82l.2-1.3a1,1,0,0,1,.6-.76l.13,0a1,1,0,0,1,.94.11l1,.72a1,1,0,0,0,1.24-.07l1.67-1.56a1,1,0,0,0,.11-1.31l-.73-.95a1,1,0,0,1-.15-.94l.07-.17a1,1,0,0,1,.82-.63l1.13-.12a1,1,0,0,0,.88-1l0-2.25a1,1,0,0,0-.81-1l-1.3-.23A1,1,0,0,1,1206.05,494Z"/><circle class="cls-6" cx="811.23" cy="399.18" r="6.37"/><path class="cls-6" d="M823.2,394.63l-.11-.26a1.64,1.64,0,0,1,.24-1.6l1.21-1.51a1.63,1.63,0,0,0-.1-2.13l-2.93-3a1.63,1.63,0,0,0-2.33,0L818,387.3a1.62,1.62,0,0,1-1.77.37h0a1.64,1.64,0,0,1-1-1.31l-.23-2a1.62,1.62,0,0,0-1.63-1.42l-4,.05a1.61,1.61,0,0,0-1.59,1.45l-.19,1.84a1.62,1.62,0,0,1-1,1.32l-.2.09a1.63,1.63,0,0,1-1.68-.24l-1.46-1.2a1.61,1.61,0,0,0-2.16.1l-2.82,2.76a1.63,1.63,0,0,0-.11,2.18l1.21,1.48a1.62,1.62,0,0,1,.26,1.61l-.07.18a1.62,1.62,0,0,1-1.35,1l-1.88.19a1.61,1.61,0,0,0-1.45,1.58l-.05,3.86a1.61,1.61,0,0,0,1.37,1.62l2.16.34a1.6,1.6,0,0,1,1.26,1l.08.2a1.63,1.63,0,0,1-.28,1.65l-1.19,1.36a1.62,1.62,0,0,0,.11,2.23l2.91,2.76a1.61,1.61,0,0,0,2.15.06l1.38-1.16a1.64,1.64,0,0,1,1.71-.24l.15.07a1.64,1.64,0,0,1,.94,1.26l.29,2.16a1.61,1.61,0,0,0,1.62,1.41l3.66-.05a1.61,1.61,0,0,0,1.57-1.37l.34-2.14a1.61,1.61,0,0,1,1-1.24l.22-.09a1.61,1.61,0,0,1,1.56.19l1.64,1.18a1.62,1.62,0,0,0,2.05-.12l2.76-2.57a1.62,1.62,0,0,0,.18-2.17L823.31,406a1.62,1.62,0,0,1-.24-1.56l.11-.28a1.62,1.62,0,0,1,1.35-1l1.86-.18a1.63,1.63,0,0,0,1.46-1.59l0-3.72a1.63,1.63,0,0,0-1.34-1.62l-2.14-.37A1.61,1.61,0,0,1,823.2,394.63Z"/><path class="cls-4" d="M1072.24,862.45,1097.65,881a3.72,3.72,0,0,0,5.91-3l.22-87.37a3.71,3.71,0,0,0-5.88-3l-25,17.92a3.73,3.73,0,0,1-2.22.7l-22.31-.32a3.71,3.71,0,0,0-3.77,3.72V858a3.71,3.71,0,0,0,3.72,3.72h21.72A3.72,3.72,0,0,1,1072.24,862.45Z"/><path class="cls-4" d="M1113.29,808s28.18,22.18-.87,51.13"/><path class="cls-4" d="M1128.34,799s38,29.92-1.17,69"/><circle class="cls-4" cx="1358.23" cy="427.28" r="13.87"/><path class="cls-4" d="M1344.76,447.79h28.51a10,10,0,0,1,10,10v35.11a5,5,0,0,1-5,5h-37.86a5,5,0,0,1-5-5V457.11A9.32,9.32,0,0,1,1344.76,447.79Z"/><circle class="cls-4" cx="1318.91" cy="411.91" r="16.11"/><path class="cls-4" d="M1335.29,490.18h-30.23a11.43,11.43,0,0,1-11.4-11.4V455.87a21.31,21.31,0,0,1,21.25-21.24h8.9c10.42,0,17.75,4.74,20.48,14.31"/><circle class="cls-6" cx="1064.04" cy="284.38" r="6.01"/><path class="cls-6" d="M1063.49,293.27h1.38a10,10,0,0,1,10,10V310a5,5,0,0,1-5,5h-10.74a5,5,0,0,1-5-5v-7.4a9.32,9.32,0,0,1,9.32-9.32Z"/><circle class="cls-6" cx="1047" cy="277.72" r="6.98"/><path class="cls-6" d="M1054.1,311.63H1041a5,5,0,0,1-4.93-4.94v-9.92a9.24,9.24,0,0,1,9.2-9.21h3.86c4.51,0,7.68,2.06,8.87,6.21"/><circle class="cls-4" cx="896.5" cy="731.46" r="6.31"/><path class="cls-4" d="M895.45,740.79h2.41a10,10,0,0,1,10,10v7.77a5,5,0,0,1-5,5H891.13a5,5,0,0,1-5-5v-8.49A9.32,9.32,0,0,1,895.45,740.79Z"/><circle class="cls-4" cx="878.61" cy="724.46" r="7.33"/><path class="cls-4" d="M886.06,760.07H872.31a5.2,5.2,0,0,1-5.18-5.19V744.46a9.69,9.69,0,0,1,9.66-9.66h4.05c4.74,0,8.07,2.16,9.31,6.51"/><ellipse class="cls-4" cx="743.19" cy="326.64" rx="10.4" ry="6.29"/><path class="cls-4" d="M753.59,326.51l.26-49.57,14.75,22.51a13,13,0,0,1-.13,14.48l-2.8,4.11"/><ellipse class="cls-4" cx="793.19" cy="576.64" rx="10.4" ry="6.29"/><path class="cls-4" d="M803.59,576.51l.26-49.57,14.75,22.51a13,13,0,0,1-.13,14.48l-2.8,4.11"/><ellipse class="cls-4" cx="1144.29" cy="749" rx="6.5" ry="3.93"/><path class="cls-4" d="M1150.79,748.92l.16-31,9.22,14.07a8.16,8.16,0,0,1-.08,9l-1.75,2.56"/><line class="cls-4" x1="1466.34" y1="191.35" x2="1488.27" y2="191.35"/><line class="cls-4" x1="1473.88" y1="212.59" x2="1560.9" y2="212.59"/><line class="cls-4" x1="1467.71" y1="233.83" x2="1501.97" y2="233.83"/><path class="cls-4" d="M1289,200.08h40.23a37.21,37.21,0,0,1-1.33-9.87c0-19.24,14.56-34.84,32.51-34.84s32.52,15.6,32.52,34.84a37.21,37.21,0,0,1-1.33,9.87h19.08a17.72,17.72,0,0,1,17.67,17.67h0a16,16,0,0,1-16,16H1283.17a13.94,13.94,0,0,1-13.93-13.94A19.79,19.79,0,0,1,1289,200.08Z"/><line class="cls-4" x1="1261.69" y1="229.69" x2="1208.27" y2="229.69"/><line class="cls-4" x1="459.95" y1="461.14" x2="436.56" y2="461.14"/><line class="cls-4" x1="451.91" y1="483.79" x2="359.1" y2="483.79"/><line class="cls-4" x1="458.49" y1="506.44" x2="421.95" y2="506.44"/><path class="cls-4" d="M649.11,470.45H606.2a39.6,39.6,0,0,0,1.42-10.53c0-20.52-15.53-37.15-34.68-37.15s-34.68,16.63-34.68,37.15a40,40,0,0,0,1.42,10.53H519.33a18.9,18.9,0,0,0-18.84,18.84h0a17.08,17.08,0,0,0,17.07,17.08H655.3a14.86,14.86,0,0,0,14.86-14.87A21.12,21.12,0,0,0,649.11,470.45Z"/><polygon class="cls-7" points="1113.53 281.28 1098.56 283.3 1109.82 294.76 1107.27 310.16 1120.97 302.83 1134.88 309.84 1132.86 294.76 1144.33 283.83 1128.29 281.07 1121.39 267.37 1113.53 281.28"/><rect class="cls-2" x="1252.4" y="666.38" width="65.24" height="64.55" rx="4.49"/><line class="cls-2" x1="1252.4" y1="685.8" x2="1317.29" y2="685.8"/><line class="cls-2" x1="1268.24" y1="666.55" x2="1282.04" y2="685.63"/><line class="cls-2" x1="1288.85" y1="666.55" x2="1302.99" y2="685.97"/><path class="cls-2" d="M1275.73,714.06V698.77a2.42,2.42,0,0,1,3.6-2.12l14.69,8.12a2.47,2.47,0,0,1-.14,4.39l-14.75,7A2.38,2.38,0,0,1,1275.73,714.06Z"/><path class="cls-2" d="M701.24,357.94h57.5A10.26,10.26,0,0,1,769,368.2v58a11.76,11.76,0,0,1-11.76,11.76h-59a8.76,8.76,0,0,1-8.76-8.76V369.7A11.76,11.76,0,0,1,701.24,357.94Z"/><path d="M752.94,420.88H742.68V420c0-5.54,0-11.08,0-16.62a19,19,0,0,0-.28-3.19c-.58-3.49-2.91-5.13-6.4-4.58-2.83.45-4.49,2.08-5,5.1a20.23,20.23,0,0,0-.32,3.56c0,5.24,0,10.48,0,15.72v.86h-10.1V387.28H730.6v4.25a10.48,10.48,0,0,1,4.68-3.85,14.64,14.64,0,0,1,12,.35c2.82,1.31,4.28,3.81,4.9,6.74a31.67,31.67,0,0,1,.74,6.05c.1,6.53.05,13.06.05,19.6C753,420.56,753,420.7,752.94,420.88Z"/><path d="M703.51,420.86v-33.6h10.34v33.6Z"/><path d="M708.83,382.6a6.11,6.11,0,1,1,6.12-6.1A6.14,6.14,0,0,1,708.83,382.6Z"/><path class="cls-2" d="M1317.24,529.94h57.5A10.26,10.26,0,0,1,1385,540.2v58a11.76,11.76,0,0,1-11.76,11.76h-59a8.76,8.76,0,0,1-8.76-8.76V541.7A11.76,11.76,0,0,1,1317.24,529.94Z"/><path d="M1343.35,576c-1.46,6.08-2.78,12.11-7.46,17-.17-.73-.3-1.17-.38-1.61-.83-4.65,0-9.15,1.17-13.62.81-3.05,1.48-6.14,2.31-9.18a5,5,0,0,0-.27-3.38,8.25,8.25,0,0,1,2-8.62,4,4,0,0,1,4.92-.74,4.24,4.24,0,0,1,1.94,4.88c-.72,2.75-1.4,5.52-2.28,8.22a4.52,4.52,0,0,0,5.45,5.58,7.6,7.6,0,0,0,4.62-3.05,18.4,18.4,0,0,0,2.9-14.32c-.76-3.79-3.36-6.1-7-7.15a15.16,15.16,0,0,0-11.87,1.23c-5,2.74-8.21,9.39-5.63,15.26.21.49.7.86.89,1.36a5.17,5.17,0,0,1,.4,1.9,7,7,0,0,1-.44,1.68c-.27,1-.61,1.25-1.63.86a8.08,8.08,0,0,1-3.66-3.35,12.23,12.23,0,0,1-1.55-10.24c1.63-6.49,5.83-10.65,12-12.81a21.79,21.79,0,0,1,17.31,1c5.27,2.58,8,7.12,8.38,12.91s-1.31,11.33-5.64,15.56a12.38,12.38,0,0,1-11.31,3.62A8.65,8.65,0,0,1,1343.35,576Z"/><path class="cls-2" d="M1184.49,254.94h38.89a6.52,6.52,0,0,1,6.52,6.52v39.21a8,8,0,0,1-8,8h-40.39a5,5,0,0,1-5-5V263a8,8,0,0,1,8-8Z"/><g class="cls-8"><path d="M1170.35,308.08v-47c.12-.48.22-1,.38-1.45a7,7,0,0,1,6.82-4.69H1223a6.94,6.94,0,0,1,5.32,2.75,8,8,0,0,1,1.41,3.38v47c0,.13-.08.25-.11.38a6.84,6.84,0,0,1-4.81,5.44c-.4.14-.82.21-1.22.32H1176.5a1,1,0,0,0-.27-.1,6.84,6.84,0,0,1-4.58-2.82A8,8,0,0,1,1170.35,308.08Zm32-24.55v-.69c0-1.6,0-3.2,0-4.8a10.5,10.5,0,0,1,9.25-10c2-.22,4-.1,6-.12,0,0,.06,0,.08.05v7.11h-4.51a3.45,3.45,0,0,0-3.68,3.65c0,1.45,0,2.9,0,4.34a4.19,4.19,0,0,0,0,.47h8.3c-.4,2.41-.79,4.78-1.19,7.18h-7.12v18.86h12.79a2.39,2.39,0,0,0,2.71-2.7q0-22.31,0-44.62a2.39,2.39,0,0,0-2.71-2.7h-44.71a2.38,2.38,0,0,0-2.68,2.67v44.68a2.38,2.38,0,0,0,2.68,2.67h24.66V290.7h-6.88v-7.17Z"/></g></svg>